<?xml version="1.0" encoding="UTF-8" standalone="no"?>
<!DOCTYPE svg PUBLIC "-//W3C//DTD SVG 1.0//EN"
"http://www.w3.org/Graphics/SVG/1.1/DTD/svg10.dtd">
<svg xmlns="http://www.w3.org/2000/svg" xmlns:xlink="http://www.w3.org/1999/xlink" width=" 685.00" height="656.00" >

<svg x="0.00" y="0.00" width=" 685.00" height="656.00" >
<rect x="0" y="0" width="685.00" height="656.00" 	 style= "fill: #FFFFFF; " /> 
<polygon style= "fill: #0000CF; opacity:1.00 " points="566.27,352.71 566.98,343.77 611.03,356.23 " />
<polygon style= "fill: #0000CF; opacity:1.00 " points="566.98,343.77 611.73,347.28 611.03,356.23 " />
<polygon style= "fill: #004BCF; opacity:1.00 " points="521.52,349.24 522.21,340.29 562.48,351.64 " />
<polygon style= "fill: #0000CF; opacity:1.00 " points="566.98,343.77 566.27,352.71 562.48,351.64 " />
<polygon style= "fill: #0000CF; opacity:1.00 " points="563.09,343.46 566.98,343.77 562.48,351.64 " />
<polygon style= "fill: #004BCF; opacity:1.00 " points="563.09,343.46 562.48,351.64 522.21,340.29 " />
<polygon style= "fill: #0096CF; opacity:1.00 " points="476.76,345.86 477.43,336.92 517.08,348.00 " />
<polygon style= "fill: #0096CF; opacity:1.00 " points="517.02,348.90 476.76,345.86 517.08,348.00 " />
<polygon style= "fill: #004BCF; opacity:1.00 " points="517.02,348.90 517.08,348.00 521.52,349.24 " />
<polygon style= "fill: #004BCF; opacity:1.00 " points="522.21,340.29 521.52,349.24 517.08,348.00 " />
<polygon style= "fill: #004BCF; opacity:1.00 " points="517.70,339.95 522.21,340.29 517.08,348.00 " />
<polygon style= "fill: #0096CF; opacity:1.00 " points="517.70,339.95 517.08,348.00 477.43,336.92 " />
<polygon style= "fill: #00CFBB; opacity:1.00 " points="432.01,342.63 432.64,333.69 471.97,344.54 " />
<polygon style= "fill: #00CFBB; opacity:1.00 " points="471.90,345.51 432.01,342.63 471.97,344.54 " />
<polygon style= "fill: #0096CF; opacity:1.00 " points="477.43,336.92 476.76,345.86 471.97,344.54 " />
<polygon style= "fill: #0096CF; opacity:1.00 " points="472.54,336.57 477.43,336.92 471.97,344.54 " />
<polygon style= "fill: #00CFBB; opacity:1.00 " points="472.54,336.57 471.97,344.54 432.64,333.69 " />
<polygon style= "fill: #00CF71; opacity:1.00 " points="387.25,339.60 387.84,330.66 427.02,341.28 " />
<polygon style= "fill: #00CF71; opacity:1.00 " points="426.96,342.29 387.25,339.60 427.02,341.28 " />
<polygon style= "fill: #00CFBB; opacity:1.00 " points="426.96,342.29 427.02,341.28 432.01,342.63 " />
<polygon style= "fill: #00CFBB; opacity:1.00 " points="432.64,333.69 432.01,342.63 427.02,341.28 " />
<polygon style= "fill: #00CFBB; opacity:1.00 " points="427.59,333.35 432.64,333.69 427.02,341.28 " />
<polygon style= "fill: #00CF71; opacity:1.00 " points="427.59,333.35 427.02,341.28 387.84,330.66 " />
<polygon style= "fill: #00CF25; opacity:1.00 " points="342.50,336.82 343.03,327.87 382.00,338.20 " />
<polygon style= "fill: #00CF25; opacity:1.00 " points="381.93,339.27 342.50,336.82 382.00,338.20 " />
<polygon style= "fill: #00CF71; opacity:1.00 " points="381.93,339.27 382.00,338.20 387.25,339.60 " />
<polygon style= "fill: #00CF71; opacity:1.00 " points="387.84,330.66 387.25,339.60 382.00,338.20 " />
<polygon style= "fill: #00CF71; opacity:1.00 " points="382.49,330.33 387.84,330.66 382.00,338.20 " />
<polygon style= "fill: #00CF25; opacity:1.00 " points="382.49,330.33 382.00,338.20 343.03,327.87 " />
<polygon style= "fill: #25CF00; opacity:1.00 " points="297.75,334.32 298.21,325.38 337.08,335.42 " />
<polygon style= "fill: #25CF00; opacity:1.00 " points="337.02,336.51 297.75,334.32 337.08,335.42 " />
<polygon style= "fill: #00CF25; opacity:1.00 " points="343.03,327.87 342.50,336.82 337.08,335.42 " />
<polygon style= "fill: #00CF25; opacity:1.00 " points="337.56,327.57 343.03,327.87 337.08,335.42 " />
<polygon style= "fill: #25CF00; opacity:1.00 " points="337.56,327.57 337.08,335.42 298.21,325.38 " />
<polygon style= "fill: #71CF00; opacity:1.00 " points="252.99,332.18 253.38,323.23 292.07,332.90 " />
<polygon style= "fill: #71CF00; opacity:1.00 " points="292.02,334.05 252.99,332.18 292.07,332.90 " />
<polygon style= "fill: #25CF00; opacity:1.00 " points="292.02,334.05 292.07,332.90 297.75,334.32 " />
<polygon style= "fill: #25CF00; opacity:1.00 " points="298.21,325.38 297.75,334.32 292.07,332.90 " />
<polygon style= "fill: #25CF00; opacity:1.00 " points="292.45,325.11 298.21,325.38 292.07,332.90 " />
<polygon style= "fill: #71CF00; opacity:1.00 " points="292.45,325.11 292.07,332.90 253.38,323.23 " />
<polygon style= "fill: #BBCF00; opacity:1.00 " points="208.24,330.42 208.55,321.48 247.16,330.77 " />
<polygon style= "fill: #BBCF00; opacity:1.00 " points="247.12,331.94 208.24,330.42 247.16,330.77 " />
<polygon style= "fill: #71CF00; opacity:1.00 " points="247.12,331.94 247.16,330.77 252.99,332.18 " />
<polygon style= "fill: #71CF00; opacity:1.00 " points="253.38,323.23 252.99,332.18 247.16,330.77 " />
<polygon style= "fill: #71CF00; opacity:1.00 " points="247.52,323.00 253.38,323.23 247.16,330.77 " />
<polygon style= "fill: #BBCF00; opacity:1.00 " points="247.52,323.00 247.16,330.77 208.55,321.48 " />
<polygon style= "fill: #CF9600; opacity:1.00 " points="163.48,329.11 163.70,320.16 202.15,329.02 " />
<polygon style= "fill: #CF9600; opacity:1.00 " points="202.12,330.24 163.48,329.11 202.15,329.02 " />
<polygon style= "fill: #BBCF00; opacity:1.00 " points="202.12,330.24 202.15,329.02 208.24,330.42 " />
<polygon style= "fill: #BBCF00; opacity:1.00 " points="208.55,321.48 208.24,330.42 202.15,329.02 " />
<polygon style= "fill: #BBCF00; opacity:1.00 " points="202.40,321.30 208.55,321.48 202.15,329.02 " />
<polygon style= "fill: #CF9600; opacity:1.00 " points="202.40,321.30 202.15,329.02 163.70,320.16 " />
<polygon style= "fill: #CF4B00; opacity:1.00 " points="118.73,328.28 118.84,319.34 157.24,327.74 " />
<polygon style= "fill: #CF4B00; opacity:1.00 " points="157.23,328.99 118.73,328.28 157.24,327.74 " />
<polygon style= "fill: #CF9600; opacity:1.00 " points="157.23,328.99 157.24,327.74 163.48,329.11 " />
<polygon style= "fill: #CF9600; opacity:1.00 " points="163.70,320.16 163.48,329.11 157.24,327.74 " />
<polygon style= "fill: #CF9600; opacity:1.00 " points="157.45,320.05 163.70,320.16 157.24,327.74 " />
<polygon style= "fill: #CF4B00; opacity:1.00 " points="157.45,320.05 157.24,327.74 118.84,319.34 " />
<polygon style= "fill: #CF0000; opacity:1.00 " points="73.97,328.00 73.97,319.06 105.29,325.51 " />
<polygon style= "fill: #CF0000; opacity:1.00 " points="104.99,328.19 73.97,328.00 105.29,325.51 " />
<polygon style= "fill: #CF4B00; opacity:1.00 " points="104.99,328.19 105.29,325.51 118.73,328.28 " />
<polygon style= "fill: #CF4B00; opacity:1.00 " points="118.84,319.34 118.73,328.28 105.29,325.51 " />
<polygon style= "fill: #CF4B00; opacity:1.00 " points="105.33,319.26 118.84,319.34 105.29,325.51 " />
<polygon style= "fill: #CF0000; opacity:1.00 " points="105.33,319.26 105.29,325.51 73.97,319.06 " />
<polygon style= "fill: #0000CF; opacity:1.00 " points="565.57,361.65 566.27,352.71 610.32,365.17 " />
<polygon style= "fill: #0000CF; opacity:1.00 " points="566.27,352.71 611.03,356.23 610.32,365.17 " />
<polygon style= "fill: #004BCF; opacity:1.00 " points="520.83,358.18 521.52,349.24 561.80,360.59 " />
<polygon style= "fill: #004BCF; opacity:1.00 " points="561.74,361.36 520.83,358.18 561.80,360.59 " />
<polygon style= "fill: #0000CF; opacity:1.00 " points="566.27,352.71 565.57,361.65 561.80,360.59 " />
<polygon style= "fill: #0000CF; opacity:1.00 " points="562.42,352.41 566.27,352.71 561.80,360.59 " />
<polygon style= "fill: #004BCF; opacity:1.00 " points="562.42,352.41 561.80,360.59 521.52,349.24 " />
<polygon style= "fill: #0096CF; opacity:1.00 " points="476.10,354.81 476.76,345.86 516.40,356.94 " />
<polygon style= "fill: #0096CF; opacity:1.00 " points="516.34,357.84 476.10,354.81 516.40,356.94 " />
<polygon style= "fill: #004BCF; opacity:1.00 " points="516.34,357.84 516.40,356.94 520.83,358.18 " />
<polygon style= "fill: #004BCF; opacity:1.00 " points="521.52,349.24 520.83,358.18 516.40,356.94 " />
<polygon style= "fill: #004BCF; opacity:1.00 " points="517.02,348.90 521.52,349.24 516.40,356.94 " />
<polygon style= "fill: #0096CF; opacity:1.00 " points="517.02,348.90 516.40,356.94 476.76,345.86 " />
<polygon style= "fill: #00CFBB; opacity:1.00 " points="431.38,351.58 432.01,342.63 471.34,353.49 " />
<polygon style= "fill: #00CFBB; opacity:1.00 " points="471.27,354.46 431.38,351.58 471.34,353.49 " />
<polygon style= "fill: #0096CF; opacity:1.00 " points="476.76,345.86 476.10,354.81 471.34,353.49 " />
<polygon style= "fill: #0096CF; opacity:1.00 " points="471.90,345.51 476.76,345.86 471.34,353.49 " />
<polygon style= "fill: #00CFBB; opacity:1.00 " points="471.90,345.51 471.34,353.49 432.01,342.63 " />
<polygon style= "fill: #00CF71; opacity:1.00 " points="386.67,348.55 387.25,339.60 426.39,350.22 " />
<polygon style= "fill: #00CF71; opacity:1.00 " points="426.33,351.23 386.67,348.55 426.39,350.22 " />
<polygon style= "fill: #00CFBB; opacity:1.00 " points="426.33,351.23 426.39,350.22 431.38,351.58 " />
<polygon style= "fill: #00CFBB; opacity:1.00 " points="432.01,342.63 431.38,351.58 426.39,350.22 " />
<polygon style= "fill: #00CFBB; opacity:1.00 " points="426.96,342.29 432.01,342.63 426.39,350.22 " />
<polygon style= "fill: #00CF71; opacity:1.00 " points="426.96,342.29 426.39,350.22 387.25,339.60 " />
<polygon style= "fill: #00CF25; opacity:1.00 " points="341.97,345.76 342.50,336.82 381.44,347.16 " />
<polygon style= "fill: #00CF25; opacity:1.00 " points="381.38,348.22 341.97,345.76 381.44,347.16 " />
<polygon style= "fill: #00CF71; opacity:1.00 " points="381.38,348.22 381.44,347.16 386.67,348.55 " />
<polygon style= "fill: #00CF71; opacity:1.00 " points="387.25,339.60 386.67,348.55 381.44,347.16 " />
<polygon style= "fill: #00CF71; opacity:1.00 " points="381.93,339.27 387.25,339.60 381.44,347.16 " />
<polygon style= "fill: #00CF25; opacity:1.00 " points="381.93,339.27 381.44,347.16 342.50,336.82 " />
<polygon style= "fill: #25CF00; opacity:1.00 " points="297.28,343.27 297.75,334.32 336.54,344.36 " />
<polygon style= "fill: #25CF00; opacity:1.00 " points="336.49,345.45 297.28,343.27 336.54,344.36 " />
<polygon style= "fill: #00CF25; opacity:1.00 " points="342.50,336.82 341.97,345.76 336.54,344.36 " />
<polygon style= "fill: #00CF25; opacity:1.00 " points="337.02,336.51 342.50,336.82 336.54,344.36 " />
<polygon style= "fill: #25CF00; opacity:1.00 " points="337.02,336.51 336.54,344.36 297.75,334.32 " />
<polygon style= "fill: #71CF00; opacity:1.00 " points="252.60,341.12 252.99,332.18 291.64,341.86 " />
<polygon style= "fill: #71CF00; opacity:1.00 " points="291.58,343.00 252.60,341.12 291.64,341.86 " />
<polygon style= "fill: #25CF00; opacity:1.00 " points="291.58,343.00 291.64,341.86 297.28,343.27 " />
<polygon style= "fill: #25CF00; opacity:1.00 " points="297.75,334.32 297.28,343.27 291.64,341.86 " />
<polygon style= "fill: #25CF00; opacity:1.00 " points="292.02,334.05 297.75,334.32 291.64,341.86 " />
<polygon style= "fill: #71CF00; opacity:1.00 " points="292.02,334.05 291.64,341.86 252.99,332.18 " />
<polygon style= "fill: #BBCF00; opacity:1.00 " points="207.93,339.37 208.24,330.42 246.77,339.71 " />
<polygon style= "fill: #BBCF00; opacity:1.00 " points="246.73,340.89 207.93,339.37 246.77,339.71 " />
<polygon style= "fill: #71CF00; opacity:1.00 " points="246.73,340.89 246.77,339.71 252.60,341.12 " />
<polygon style= "fill: #71CF00; opacity:1.00 " points="252.99,332.18 252.60,341.12 246.77,339.71 " />
<polygon style= "fill: #71CF00; opacity:1.00 " points="247.12,331.94 252.99,332.18 246.77,339.71 " />
<polygon style= "fill: #BBCF00; opacity:1.00 " points="247.12,331.94 246.77,339.71 208.24,330.42 " />
<polygon style= "fill: #CF9600; opacity:1.00 " points="163.27,338.05 163.48,329.11 201.88,337.97 " />
<polygon style= "fill: #CF9600; opacity:1.00 " points="201.85,339.19 163.27,338.05 201.88,337.97 " />
<polygon style= "fill: #BBCF00; opacity:1.00 " points="201.85,339.19 201.88,337.97 207.93,339.37 " />
<polygon style= "fill: #BBCF00; opacity:1.00 " points="208.24,330.42 207.93,339.37 201.88,337.97 " />
<polygon style= "fill: #BBCF00; opacity:1.00 " points="202.12,330.24 208.24,330.42 201.88,337.97 " />
<polygon style= "fill: #CF9600; opacity:1.00 " points="202.12,330.24 201.88,337.97 163.48,329.11 " />
<polygon style= "fill: #CF4B00; opacity:1.00 " points="118.61,337.23 118.73,328.28 157.03,336.68 " />
<polygon style= "fill: #CF4B00; opacity:1.00 " points="157.02,337.94 118.61,337.23 157.03,336.68 " />
<polygon style= "fill: #CF9600; opacity:1.00 " points="157.02,337.94 157.03,336.68 163.27,338.05 " />
<polygon style= "fill: #CF9600; opacity:1.00 " points="163.48,329.11 163.27,338.05 157.03,336.68 " />
<polygon style= "fill: #CF9600; opacity:1.00 " points="157.23,328.99 163.48,329.11 157.03,336.68 " />
<polygon style= "fill: #CF4B00; opacity:1.00 " points="157.23,328.99 157.03,336.68 118.73,328.28 " />
<polygon style= "fill: #CF0000; opacity:1.00 " points="73.97,336.94 73.97,328.00 104.95,334.40 " />
<polygon style= "fill: #CF0000; opacity:1.00 " points="104.64,337.14 73.97,336.94 104.95,334.40 " />
<polygon style= "fill: #CF4B00; opacity:1.00 " points="104.64,337.14 104.95,334.40 118.61,337.23 " />
<polygon style= "fill: #CF4B00; opacity:1.00 " points="118.73,328.28 118.61,337.23 104.95,334.40 " />
<polygon style= "fill: #CF4B00; opacity:1.00 " points="104.99,328.19 118.73,328.28 104.95,334.40 " />
<polygon style= "fill: #CF0000; opacity:1.00 " points="104.99,328.19 104.95,334.40 73.97,328.00 " />
<line x1="73.97" y1="336.94"  x2="118.61" y2="337.23" style= "stroke: #000000;stroke-width:0.76; stroke-dasharray: 0 " /> 
<line x1="118.61" y1="337.23"  x2="118.73" y2="328.28" style= "stroke: #000000;stroke-width:0.76; stroke-dasharray: 0 " /> 
<line x1="118.73" y1="328.28"  x2="73.97" y2="328.00" style= "stroke: #000000;stroke-width:0.76; stroke-dasharray: 0 " /> 
<line x1="73.97" y1="328.00"  x2="73.97" y2="336.94" style= "stroke: #000000;stroke-width:0.76; stroke-dasharray: 0 " /> 
<line x1="118.61" y1="337.23"  x2="163.27" y2="338.05" style= "stroke: #000000;stroke-width:0.76; stroke-dasharray: 0 " /> 
<line x1="163.27" y1="338.05"  x2="163.48" y2="329.11" style= "stroke: #000000;stroke-width:0.76; stroke-dasharray: 0 " /> 
<line x1="163.48" y1="329.11"  x2="118.73" y2="328.28" style= "stroke: #000000;stroke-width:0.76; stroke-dasharray: 0 " /> 
<line x1="118.73" y1="328.28"  x2="118.84" y2="319.34" style= "stroke: #000000;stroke-width:0.76; stroke-dasharray: 0 " /> 
<line x1="118.84" y1="319.34"  x2="73.97" y2="319.06" style= "stroke: #000000;stroke-width:0.76; stroke-dasharray: 0 " /> 
<line x1="73.97" y1="319.06"  x2="73.97" y2="328.00" style= "stroke: #000000;stroke-width:0.76; stroke-dasharray: 0 " /> 
<line x1="163.27" y1="338.05"  x2="207.93" y2="339.37" style= "stroke: #000000;stroke-width:0.76; stroke-dasharray: 0 " /> 
<line x1="207.93" y1="339.37"  x2="208.24" y2="330.42" style= "stroke: #000000;stroke-width:0.76; stroke-dasharray: 0 " /> 
<line x1="208.24" y1="330.42"  x2="163.48" y2="329.11" style= "stroke: #000000;stroke-width:0.76; stroke-dasharray: 0 " /> 
<line x1="163.48" y1="329.11"  x2="163.70" y2="320.16" style= "stroke: #000000;stroke-width:0.76; stroke-dasharray: 0 " /> 
<line x1="163.70" y1="320.16"  x2="118.84" y2="319.34" style= "stroke: #000000;stroke-width:0.76; stroke-dasharray: 0 " /> 
<line x1="207.93" y1="339.37"  x2="252.60" y2="341.12" style= "stroke: #000000;stroke-width:0.76; stroke-dasharray: 0 " /> 
<line x1="252.60" y1="341.12"  x2="252.99" y2="332.18" style= "stroke: #000000;stroke-width:0.76; stroke-dasharray: 0 " /> 
<line x1="252.99" y1="332.18"  x2="208.24" y2="330.42" style= "stroke: #000000;stroke-width:0.76; stroke-dasharray: 0 " /> 
<line x1="208.24" y1="330.42"  x2="208.55" y2="321.48" style= "stroke: #000000;stroke-width:0.76; stroke-dasharray: 0 " /> 
<line x1="208.55" y1="321.48"  x2="163.70" y2="320.16" style= "stroke: #000000;stroke-width:0.76; stroke-dasharray: 0 " /> 
<line x1="252.60" y1="341.12"  x2="297.28" y2="343.27" style= "stroke: #000000;stroke-width:0.76; stroke-dasharray: 0 " /> 
<line x1="297.28" y1="343.27"  x2="297.75" y2="334.32" style= "stroke: #000000;stroke-width:0.76; stroke-dasharray: 0 " /> 
<line x1="297.75" y1="334.32"  x2="252.99" y2="332.18" style= "stroke: #000000;stroke-width:0.76; stroke-dasharray: 0 " /> 
<line x1="252.99" y1="332.18"  x2="253.38" y2="323.23" style= "stroke: #000000;stroke-width:0.76; stroke-dasharray: 0 " /> 
<line x1="253.38" y1="323.23"  x2="208.55" y2="321.48" style= "stroke: #000000;stroke-width:0.76; stroke-dasharray: 0 " /> 
<line x1="297.28" y1="343.27"  x2="341.97" y2="345.76" style= "stroke: #000000;stroke-width:0.76; stroke-dasharray: 0 " /> 
<line x1="341.97" y1="345.76"  x2="342.50" y2="336.82" style= "stroke: #000000;stroke-width:0.76; stroke-dasharray: 0 " /> 
<line x1="342.50" y1="336.82"  x2="297.75" y2="334.32" style= "stroke: #000000;stroke-width:0.76; stroke-dasharray: 0 " /> 
<line x1="297.75" y1="334.32"  x2="298.21" y2="325.38" style= "stroke: #000000;stroke-width:0.76; stroke-dasharray: 0 " /> 
<line x1="298.21" y1="325.38"  x2="253.38" y2="323.23" style= "stroke: #000000;stroke-width:0.76; stroke-dasharray: 0 " /> 
<line x1="341.97" y1="345.76"  x2="386.67" y2="348.55" style= "stroke: #000000;stroke-width:0.76; stroke-dasharray: 0 " /> 
<line x1="386.67" y1="348.55"  x2="387.25" y2="339.60" style= "stroke: #000000;stroke-width:0.76; stroke-dasharray: 0 " /> 
<line x1="387.25" y1="339.60"  x2="342.50" y2="336.82" style= "stroke: #000000;stroke-width:0.76; stroke-dasharray: 0 " /> 
<line x1="342.50" y1="336.82"  x2="343.03" y2="327.87" style= "stroke: #000000;stroke-width:0.76; stroke-dasharray: 0 " /> 
<line x1="343.03" y1="327.87"  x2="298.21" y2="325.38" style= "stroke: #000000;stroke-width:0.76; stroke-dasharray: 0 " /> 
<line x1="386.67" y1="348.55"  x2="431.38" y2="351.58" style= "stroke: #000000;stroke-width:0.76; stroke-dasharray: 0 " /> 
<line x1="431.38" y1="351.58"  x2="432.01" y2="342.63" style= "stroke: #000000;stroke-width:0.76; stroke-dasharray: 0 " /> 
<line x1="432.01" y1="342.63"  x2="387.25" y2="339.60" style= "stroke: #000000;stroke-width:0.76; stroke-dasharray: 0 " /> 
<line x1="387.25" y1="339.60"  x2="387.84" y2="330.66" style= "stroke: #000000;stroke-width:0.76; stroke-dasharray: 0 " /> 
<line x1="387.84" y1="330.66"  x2="343.03" y2="327.87" style= "stroke: #000000;stroke-width:0.76; stroke-dasharray: 0 " /> 
<line x1="431.38" y1="351.58"  x2="476.10" y2="354.81" style= "stroke: #000000;stroke-width:0.76; stroke-dasharray: 0 " /> 
<line x1="476.10" y1="354.81"  x2="476.76" y2="345.86" style= "stroke: #000000;stroke-width:0.76; stroke-dasharray: 0 " /> 
<line x1="476.76" y1="345.86"  x2="432.01" y2="342.63" style= "stroke: #000000;stroke-width:0.76; stroke-dasharray: 0 " /> 
<line x1="432.01" y1="342.63"  x2="432.64" y2="333.69" style= "stroke: #000000;stroke-width:0.76; stroke-dasharray: 0 " /> 
<line x1="432.64" y1="333.69"  x2="387.84" y2="330.66" style= "stroke: #000000;stroke-width:0.76; stroke-dasharray: 0 " /> 
<line x1="476.10" y1="354.81"  x2="520.83" y2="358.18" style= "stroke: #000000;stroke-width:0.76; stroke-dasharray: 0 " /> 
<line x1="520.83" y1="358.18"  x2="521.52" y2="349.24" style= "stroke: #000000;stroke-width:0.76; stroke-dasharray: 0 " /> 
<line x1="521.52" y1="349.24"  x2="476.76" y2="345.86" style= "stroke: #000000;stroke-width:0.76; stroke-dasharray: 0 " /> 
<line x1="476.76" y1="345.86"  x2="477.43" y2="336.92" style= "stroke: #000000;stroke-width:0.76; stroke-dasharray: 0 " /> 
<line x1="477.43" y1="336.92"  x2="432.64" y2="333.69" style= "stroke: #000000;stroke-width:0.76; stroke-dasharray: 0 " /> 
<line x1="520.83" y1="358.18"  x2="565.57" y2="361.65" style= "stroke: #000000;stroke-width:0.76; stroke-dasharray: 0 " /> 
<line x1="565.57" y1="361.65"  x2="566.27" y2="352.71" style= "stroke: #000000;stroke-width:0.76; stroke-dasharray: 0 " /> 
<line x1="566.27" y1="352.71"  x2="521.52" y2="349.24" style= "stroke: #000000;stroke-width:0.76; stroke-dasharray: 0 " /> 
<line x1="521.52" y1="349.24"  x2="522.21" y2="340.29" style= "stroke: #000000;stroke-width:0.76; stroke-dasharray: 0 " /> 
<line x1="522.21" y1="340.29"  x2="477.43" y2="336.92" style= "stroke: #000000;stroke-width:0.76; stroke-dasharray: 0 " /> 
<line x1="565.57" y1="361.65"  x2="610.32" y2="365.17" style= "stroke: #000000;stroke-width:0.76; stroke-dasharray: 0 " /> 
<line x1="610.32" y1="365.17"  x2="611.03" y2="356.23" style= "stroke: #000000;stroke-width:0.76; stroke-dasharray: 0 " /> 
<line x1="611.03" y1="356.23"  x2="566.27" y2="352.71" style= "stroke: #000000;stroke-width:0.76; stroke-dasharray: 0 " /> 
<line x1="566.27" y1="352.71"  x2="566.98" y2="343.77" style= "stroke: #000000;stroke-width:0.76; stroke-dasharray: 0 " /> 
<line x1="566.98" y1="343.77"  x2="522.21" y2="340.29" style= "stroke: #000000;stroke-width:0.76; stroke-dasharray: 0 " /> 
<line x1="611.03" y1="356.23"  x2="611.73" y2="347.28" style= "stroke: #000000;stroke-width:0.76; stroke-dasharray: 0 " /> 
<line x1="611.73" y1="347.28"  x2="566.98" y2="343.77" style= "stroke: #000000;stroke-width:0.76; stroke-dasharray: 0 " /> 
<polygon style= "fill: #0000FF; opacity:1.00 " points="28.71,256.87 51.23,256.87 28.71,241.87 " />
<polygon style= "fill: #0000FF; opacity:1.00 " points="51.23,256.87 51.23,241.87 28.71,241.87 " />
<polygon style= "fill: #005DFF; opacity:1.00 " points="28.71,241.87 51.23,241.87 28.71,226.87 " />
<polygon style= "fill: #005DFF; opacity:1.00 " points="51.23,241.87 51.23,226.87 28.71,226.87 " />
<polygon style= "fill: #00B9FF; opacity:1.00 " points="28.71,226.87 51.23,226.87 28.71,211.87 " />
<polygon style= "fill: #00B9FF; opacity:1.00 " points="51.23,226.87 51.23,211.87 28.71,211.87 " />
<polygon style= "fill: #00FFE8; opacity:1.00 " points="28.71,211.87 51.23,211.87 28.71,196.87 " />
<polygon style= "fill: #00FFE8; opacity:1.00 " points="51.23,211.87 51.23,196.87 28.71,196.87 " />
<polygon style= "fill: #00FF8B; opacity:1.00 " points="28.71,196.87 51.23,196.87 28.71,181.87 " />
<polygon style= "fill: #00FF8B; opacity:1.00 " points="51.23,196.87 51.23,181.87 28.71,181.87 " />
<polygon style= "fill: #00FF2E; opacity:1.00 " points="28.71,181.87 51.23,181.87 28.71,166.87 " />
<polygon style= "fill: #00FF2E; opacity:1.00 " points="51.23,181.87 51.23,166.87 28.71,166.87 " />
<polygon style= "fill: #2EFF00; opacity:1.00 " points="28.71,166.87 51.23,166.87 28.71,151.87 " />
<polygon style= "fill: #2EFF00; opacity:1.00 " points="51.23,166.87 51.23,151.87 28.71,151.87 " />
<polygon style= "fill: #8BFF00; opacity:1.00 " points="28.71,151.87 51.23,151.87 28.71,136.87 " />
<polygon style= "fill: #8BFF00; opacity:1.00 " points="51.23,151.87 51.23,136.87 28.71,136.87 " />
<polygon style= "fill: #E8FF00; opacity:1.00 " points="28.71,136.87 51.23,136.87 28.71,121.87 " />
<polygon style= "fill: #E8FF00; opacity:1.00 " points="51.23,136.87 51.23,121.87 28.71,121.87 " />
<polygon style= "fill: #FFB900; opacity:1.00 " points="28.71,121.87 51.23,121.87 28.71,106.87 " />
<polygon style= "fill: #FFB900; opacity:1.00 " points="51.23,121.87 51.23,106.87 28.71,106.87 " />
<polygon style= "fill: #FF5D00; opacity:1.00 " points="28.71,106.87 51.23,106.87 28.71,91.87 " />
<polygon style= "fill: #FF5D00; opacity:1.00 " points="51.23,106.87 51.23,91.87 28.71,91.87 " />
<polygon style= "fill: #FF0000; opacity:1.00 " points="28.71,91.87 51.23,91.87 28.71,76.87 " />
<polygon style= "fill: #FF0000; opacity:1.00 " points="51.23,91.87 51.23,76.87 28.71,76.87 " />
<polygon style= "fill: #A90000; opacity:1.00 " points="54.80,596.96 54.80,598.41 54.80,599.30 " />
<polygon style= "fill: #A90000; opacity:1.00 " points="54.80,596.96 54.80,599.30 54.80,599.30 " />
<polygon style= "fill: #A90000; opacity:1.00 " points="54.80,596.96 54.80,599.30 54.80,598.41 " />
<polygon style= "fill: #A90000; opacity:1.00 " points="54.80,596.96 54.80,598.41 54.80,596.96 " />
<polygon style= "fill: #A90000; opacity:1.00 " points="54.80,596.96 54.80,596.96 54.80,595.51 " />
<polygon style= "fill: #A90000; opacity:1.00 " points="54.80,596.96 54.80,595.51 54.80,594.62 " />
<polygon style= "fill: #A90000; opacity:1.00 " points="54.80,596.96 54.80,594.62 54.80,594.62 " />
<polygon style= "fill: #A90000; opacity:1.00 " points="54.80,596.96 54.80,594.62 54.80,595.51 " />
<polygon style= "fill: #A90000; opacity:1.00 " points="54.80,596.96 54.80,595.51 54.80,596.96 " />
<polygon style= "fill: #7F0000; opacity:1.00 " points="80.40,596.96 80.40,595.51 80.40,594.62 " />
<polygon style= "fill: #7F0000; opacity:1.00 " points="80.40,596.96 80.40,594.62 80.40,594.62 " />
<polygon style= "fill: #7F0000; opacity:1.00 " points="80.40,596.96 80.40,594.62 80.40,595.51 " />
<polygon style= "fill: #7F0000; opacity:1.00 " points="80.40,596.96 80.40,595.51 80.40,596.96 " />
<polygon style= "fill: #7F0000; opacity:1.00 " points="80.40,596.96 80.40,596.96 80.40,598.41 " />
<polygon style= "fill: #7F0000; opacity:1.00 " points="80.40,596.96 80.40,598.41 80.40,599.30 " />
<polygon style= "fill: #7F0000; opacity:1.00 " points="80.40,596.96 80.40,599.30 80.40,599.30 " />
<polygon style= "fill: #7F0000; opacity:1.00 " points="80.40,596.96 80.40,599.30 80.40,598.41 " />
<polygon style= "fill: #7F0000; opacity:1.00 " points="80.40,596.96 80.40,598.41 80.40,596.96 " />
<polygon style= "fill: #7F0000; opacity:1.00 " points="54.80,599.30 54.80,599.30 80.40,599.30 " />
<polygon style= "fill: #7F0000; opacity:1.00 " points="54.80,599.30 80.40,599.30 80.40,599.30 " />
<script type="text/ecmascript"><![CDATA[
var svgdoc, root; 
var fTol = 2000.;
var fBlueTol = 0.05 * fTol;
var fGreenTol = 0.017 * fTol;
var fRedTol = 0.032 * fTol;
var svgnsz="http://www.w3.org/2000/svg";
var version = 'Viewer unknown';
try
{
version = window.getSVGViewerVersion();
if(version.search("Adobe") != -1)
{
svgnsz = null;
}
}
catch(er)
{
}
function SubDivideTriangle(evt, x1,y1,x2,y2,x3,y3,c1R,c1G,c1B,c2R,c2G,c2B,c3R,c3G,c3B,alpha)
{
svgdoc=evt.target.ownerDocument;
root=evt.target;

if(Math.abs(c2B - c1B) > fBlueTol ||
Math.abs(c2G - c1G) > fGreenTol ||
Math.abs(c2R - c1R) > fRedTol ||
Math.abs(c3B - c1B) > fBlueTol ||
Math.abs(c3G - c1G) > fGreenTol ||
Math.abs(c3R - c1R) > fRedTol ||
Math.abs(c2B - c3B) > fBlueTol ||
Math.abs(c2G - c3G) > fGreenTol ||
Math.abs(c2R - c3R) > fRedTol )
{
var v1x = 0.5*(x1+x2);
var v1y = 0.5*(y1+y2);
var v2x = 0.5*(x1+x3);
var v2y = 0.5*(y1+y3);
var v3x = 0.5*(x2+x3);
var v3y = 0.5*(y2+y3);
var c1r = 0.5*(c1R+c2R);
var c1g = 0.5*(c1G+c2G);
var c1b = 0.5*(c1B+c2B);
var c2r = 0.5*(c1R+c3R);
var c2g = 0.5*(c1G+c3G);
var c2b = 0.5*(c1B+c3B);
var c3r = 0.5*(c2R+c3R);
var c3g = 0.5*(c2G+c3G);
var c3b = 0.5*(c2B+c3B);
SubDivideTriangle(evt,x1,y1,v1x,v1y,v2x,v2y, c1R,c1G,c1B,c1r,c1g,c1b,c2r,c2g,c2b, alpha);
SubDivideTriangle(evt,v1x,v1y,v2x,v2y,v3x,v3y, c1r,c1g,c1b,c2r,c2g,c2b,c3r,c3g,c3b,alpha);
SubDivideTriangle(evt,v1x,v1y,x2,y2,v3x,v3y, c1r,c1g,c1b,c2R,c2G,c2B,c3r,c3g,c3b,alpha);
SubDivideTriangle(evt,v2x,v2y,v3x,v3y,x3,y3, c2r,c2g,c2b,c3r,c3g,c3b,c3R,c3G,c3B,alpha);
}
else
{
obj = svgdoc.createElementNS(svgnsz,'polygon');
str = String(x1) + "," + String(y1) + " " + String(x2) + "," + String(y2) + " " + String(x3) + "," + String(y3) ;
obj.setAttributeNS(null,'points', str);
var rc = Math.round((c1R+c2R+c3R)/3.0).toString(16);
var gc = Math.round((c1G+c2G+c3G)/3.0).toString(16);
var bc = Math.round((c1B+c2B+c3B)/3.0).toString(16);
if(rc.length == 1) rc = "0"+rc;
if(gc.length == 1) gc = "0"+gc;
if(bc.length == 1) bc = "0"+bc;
cStr = "#" + rc + gc + bc;
aStr = String(alpha);
obj.setAttributeNS(null, "style", "fill:" + cStr + "; stroke:" + cStr + "; opacity:" + aStr );
aStr = String(alpha);
obj.setAttributeNS(null,"opacity", aStr);
root.appendChild(obj);
}
}
]]></script>
<g onload="SubDivideTriangle(evt,54.80,598.41,54.80,599.30,80.40,598.41,168,0,0,127,0,0,168,0,0,1.00)" />
<g onload="SubDivideTriangle(evt,54.80,599.30,80.40,599.30,80.40,598.41,127,0,0,127,0,0,168,0,0,1.00)" />
<g onload="SubDivideTriangle(evt,54.80,596.96,54.80,598.41,80.40,596.96,207,6,6,168,0,0,207,6,6,1.00)" />
<g onload="SubDivideTriangle(evt,54.80,598.41,80.40,598.41,80.40,596.96,168,0,0,168,0,0,207,6,6,1.00)" />
<g onload="SubDivideTriangle(evt,54.80,595.51,54.80,596.96,80.40,595.51,204,0,0,207,6,6,204,0,0,1.00)" />
<g onload="SubDivideTriangle(evt,54.80,596.96,80.40,596.96,80.40,595.51,207,6,6,207,6,6,204,0,0,1.00)" />
<g onload="SubDivideTriangle(evt,54.80,594.62,54.80,595.51,80.40,594.62,178,0,0,204,0,0,178,0,0,1.00)" />
<g onload="SubDivideTriangle(evt,54.80,595.51,80.40,595.51,80.40,594.62,204,0,0,204,0,0,178,0,0,1.00)" />
<g onload="SubDivideTriangle(evt,54.80,594.62,54.80,594.62,80.40,594.62,134,0,0,178,0,0,134,0,0,1.00)" />
<g onload="SubDivideTriangle(evt,54.80,594.62,80.40,594.62,80.40,594.62,178,0,0,178,0,0,134,0,0,1.00)" />
<g onload="SubDivideTriangle(evt,94.19,596.96,80.40,590.72,80.40,590.72,127,0,0,127,0,0,155,0,0,1.00)" />
<g onload="SubDivideTriangle(evt,94.19,596.96,80.40,590.72,80.40,593.10,127,0,0,155,0,0,178,0,0,1.00)" />
<g onload="SubDivideTriangle(evt,94.19,596.96,80.40,593.10,80.40,596.96,127,0,0,178,0,0,174,0,0,1.00)" />
<g onload="SubDivideTriangle(evt,94.19,596.96,80.40,596.96,80.40,600.82,127,0,0,174,0,0,146,0,0,1.00)" />
<g onload="SubDivideTriangle(evt,94.19,596.96,80.40,600.82,80.40,603.20,127,0,0,146,0,0,127,0,0,1.00)" />
<polygon style= "fill: #7F0000; opacity:1.00 " points="94.19,596.96 80.40,603.20 80.40,603.20 " />
<polygon style= "fill: #A90000; opacity:1.00 " points="80.40,596.96 80.40,596.96 80.40,600.82 " />
<polygon style= "fill: #A90000; opacity:1.00 " points="80.40,596.96 80.40,600.82 80.40,603.20 " />
<polygon style= "fill: #A90000; opacity:1.00 " points="80.40,596.96 80.40,603.20 80.40,603.20 " />
<polygon style= "fill: #A90000; opacity:1.00 " points="80.40,596.96 80.40,603.20 80.40,600.82 " />
<polygon style= "fill: #A90000; opacity:1.00 " points="80.40,596.96 80.40,600.82 80.40,596.96 " />
<polygon style= "fill: #A90000; opacity:1.00 " points="80.40,596.96 80.40,596.96 80.40,593.10 " />
<polygon style= "fill: #A90000; opacity:1.00 " points="80.40,596.96 80.40,593.10 80.40,590.72 " />
<polygon style= "fill: #A90000; opacity:1.00 " points="80.40,596.96 80.40,590.72 80.40,590.72 " />
<polygon style= "fill: #A90000; opacity:1.00 " points="80.40,596.96 80.40,590.72 80.40,593.10 " />
<polygon style= "fill: #A90000; opacity:1.00 " points="80.40,596.96 80.40,593.10 80.40,596.96 " />
<polygon style= "fill: #007F00; opacity:1.00 " points="57.26,596.96 56.79,596.96 55.56,596.96 " />
<polygon style= "fill: #007F00; opacity:1.00 " points="57.26,596.96 55.56,596.96 54.04,596.96 " />
<polygon style= "fill: #007F00; opacity:1.00 " points="57.26,596.96 54.04,596.96 52.81,596.96 " />
<polygon style= "fill: #007F00; opacity:1.00 " points="57.26,596.96 52.81,596.96 52.34,596.96 " />
<polygon style= "fill: #007F00; opacity:1.00 " points="57.26,596.96 52.34,596.96 52.81,596.96 " />
<polygon style= "fill: #007F00; opacity:1.00 " points="57.26,596.96 52.81,596.96 54.04,596.96 " />
<polygon style= "fill: #007F00; opacity:1.00 " points="57.26,596.96 54.04,596.96 55.56,596.96 " />
<polygon style= "fill: #007F00; opacity:1.00 " points="57.26,596.96 55.56,596.96 56.79,596.96 " />
<polygon style= "fill: #007F00; opacity:1.00 " points="57.26,596.96 56.79,596.96 57.26,596.96 " />
<polygon style= "fill: #009D00; opacity:1.00 " points="57.26,571.38 56.79,571.38 55.56,571.38 " />
<polygon style= "fill: #009D00; opacity:1.00 " points="57.26,571.38 55.56,571.38 54.04,571.38 " />
<polygon style= "fill: #009D00; opacity:1.00 " points="57.26,571.38 54.04,571.38 52.81,571.38 " />
<polygon style= "fill: #009D00; opacity:1.00 " points="57.26,571.38 52.81,571.38 52.34,571.38 " />
<polygon style= "fill: #009D00; opacity:1.00 " points="57.26,571.38 52.34,571.38 52.81,571.38 " />
<polygon style= "fill: #009D00; opacity:1.00 " points="57.26,571.38 52.81,571.38 54.04,571.38 " />
<polygon style= "fill: #009D00; opacity:1.00 " points="57.26,571.38 54.04,571.38 55.56,571.38 " />
<polygon style= "fill: #009D00; opacity:1.00 " points="57.26,571.38 55.56,571.38 56.79,571.38 " />
<polygon style= "fill: #009D00; opacity:1.00 " points="57.26,571.38 56.79,571.38 57.26,571.38 " />
<g onload="SubDivideTriangle(evt,56.79,596.96,57.26,596.96,56.79,571.38,0,136,0,0,127,0,0,136,0,1.00)" />
<g onload="SubDivideTriangle(evt,57.26,596.96,57.26,571.38,56.79,571.38,0,127,0,0,127,0,0,136,0,1.00)" />
<g onload="SubDivideTriangle(evt,55.56,596.96,56.79,596.96,55.56,571.38,0,183,0,0,136,0,0,183,0,1.00)" />
<g onload="SubDivideTriangle(evt,56.79,596.96,56.79,571.38,55.56,571.38,0,136,0,0,136,0,0,183,0,1.00)" />
<g onload="SubDivideTriangle(evt,54.04,596.96,55.56,596.96,54.04,571.38,48,255,48,0,183,0,48,255,48,1.00)" />
<g onload="SubDivideTriangle(evt,55.56,596.96,55.56,571.38,54.04,571.38,0,183,0,0,183,0,48,255,48,1.00)" />
<g onload="SubDivideTriangle(evt,52.81,596.96,54.04,596.96,52.81,571.38,0,203,0,48,255,48,0,203,0,1.00)" />
<g onload="SubDivideTriangle(evt,54.04,596.96,54.04,571.38,52.81,571.38,48,255,48,48,255,48,0,203,0,1.00)" />
<g onload="SubDivideTriangle(evt,52.34,596.96,52.81,596.96,52.34,571.38,0,169,0,0,203,0,0,169,0,1.00)" />
<g onload="SubDivideTriangle(evt,52.81,596.96,52.81,571.38,52.34,571.38,0,203,0,0,203,0,0,169,0,1.00)" />
<g onload="SubDivideTriangle(evt,54.80,557.60,48.24,571.38,49.49,571.38,0,157,0,0,178,0,0,209,0,1.00)" />
<g onload="SubDivideTriangle(evt,54.80,557.60,49.49,571.38,52.77,571.38,0,157,0,0,209,0,13,230,13,1.00)" />
<g onload="SubDivideTriangle(evt,54.80,557.60,52.77,571.38,56.83,571.38,0,157,0,13,230,13,0,191,0,1.00)" />
<g onload="SubDivideTriangle(evt,54.80,557.60,56.83,571.38,60.11,571.38,0,157,0,0,191,0,0,148,0,1.00)" />
<g onload="SubDivideTriangle(evt,54.80,557.60,60.11,571.38,61.36,571.38,0,157,0,0,148,0,0,127,0,1.00)" />
<polygon style= "fill: #007F00; opacity:1.00 " points="54.80,571.38 61.36,571.38 60.11,571.38 " />
<polygon style= "fill: #007F00; opacity:1.00 " points="54.80,571.38 60.11,571.38 56.83,571.38 " />
<polygon style= "fill: #007F00; opacity:1.00 " points="54.80,571.38 56.83,571.38 52.77,571.38 " />
<polygon style= "fill: #007F00; opacity:1.00 " points="54.80,571.38 52.77,571.38 49.49,571.38 " />
<polygon style= "fill: #007F00; opacity:1.00 " points="54.80,571.38 49.49,571.38 48.24,571.38 " />
<polygon style= "fill: #007F00; opacity:1.00 " points="54.80,571.38 48.24,571.38 49.49,571.38 " />
<polygon style= "fill: #007F00; opacity:1.00 " points="54.80,571.38 49.49,571.38 52.77,571.38 " />
<polygon style= "fill: #007F00; opacity:1.00 " points="54.80,571.38 52.77,571.38 56.83,571.38 " />
<polygon style= "fill: #007F00; opacity:1.00 " points="54.80,571.38 56.83,571.38 60.11,571.38 " />
<polygon style= "fill: #007F00; opacity:1.00 " points="54.80,571.38 60.11,571.38 61.36,571.38 " />
<polygon style= "fill: #00007F; opacity:1.00 " points="57.26,596.96 56.79,595.51 57.26,596.96 " />
<polygon style= "fill: #0606CF; opacity:1.00 " points="57.26,596.96 56.79,595.51 55.56,594.62 " />
<polygon style= "fill: #0606CF; opacity:1.00 " points="57.26,596.96 55.56,594.62 54.04,594.62 " />
<polygon style= "fill: #0606CF; opacity:1.00 " points="57.26,596.96 54.04,594.62 52.81,595.51 " />
<polygon style= "fill: #0606CF; opacity:1.00 " points="57.26,596.96 52.81,595.51 52.34,596.96 " />
<polygon style= "fill: #0606CF; opacity:1.00 " points="57.26,596.96 52.34,596.96 52.81,598.41 " />
<polygon style= "fill: #0606CF; opacity:1.00 " points="57.26,596.96 52.81,598.41 54.04,599.30 " />
<polygon style= "fill: #0606CF; opacity:1.00 " points="57.26,596.96 54.04,599.30 55.56,599.30 " />
<polygon style= "fill: #0606CF; opacity:1.00 " points="57.26,596.96 55.56,599.30 56.79,598.41 " />
<polygon style= "fill: #0606CF; opacity:1.00 " points="57.26,596.96 56.79,598.41 57.26,596.96 " />
<polygon style= "fill: #00007F; opacity:1.00 " points="56.79,598.41 57.26,596.96 56.79,598.41 " />
<polygon style= "fill: #00007F; opacity:1.00 " points="57.26,596.96 57.26,596.96 56.79,598.41 " />
<polygon style= "fill: #00007F; opacity:1.00 " points="55.56,599.30 56.79,598.41 55.56,599.30 " />
<polygon style= "fill: #00007F; opacity:1.00 " points="56.79,598.41 56.79,598.41 55.56,599.30 " />
<polygon style= "fill: #00007F; opacity:1.00 " points="54.04,599.30 55.56,599.30 54.04,599.30 " />
<polygon style= "fill: #00007F; opacity:1.00 " points="55.56,599.30 55.56,599.30 54.04,599.30 " />
<g onload="SubDivideTriangle(evt,52.81,598.41,54.04,599.30,52.81,598.41,0,0,143,0,0,127,0,0,143,1.00)" />
<g onload="SubDivideTriangle(evt,54.04,599.30,54.04,599.30,52.81,598.41,0,0,127,0,0,127,0,0,143,1.00)" />
<g onload="SubDivideTriangle(evt,52.34,596.96,52.81,598.41,52.34,596.96,0,0,169,0,0,143,0,0,169,1.00)" />
<g onload="SubDivideTriangle(evt,52.81,598.41,52.81,598.41,52.34,596.96,0,0,143,0,0,143,0,0,169,1.00)" />
<g onload="SubDivideTriangle(evt,52.81,595.51,52.34,596.96,52.81,595.51,0,0,179,0,0,169,0,0,179,1.00)" />
<g onload="SubDivideTriangle(evt,52.34,596.96,52.34,596.96,52.81,595.51,0,0,169,0,0,169,0,0,179,1.00)" />
<g onload="SubDivideTriangle(evt,54.04,594.62,52.81,595.51,54.04,594.62,0,0,169,0,0,179,0,0,169,1.00)" />
<g onload="SubDivideTriangle(evt,52.81,595.51,52.81,595.51,54.04,594.62,0,0,179,0,0,179,0,0,169,1.00)" />
<g onload="SubDivideTriangle(evt,55.56,594.62,54.04,594.62,55.56,594.62,0,0,143,0,0,169,0,0,143,1.00)" />
<g onload="SubDivideTriangle(evt,54.04,594.62,54.04,594.62,55.56,594.62,0,0,169,0,0,169,0,0,143,1.00)" />
<g onload="SubDivideTriangle(evt,56.79,595.51,55.56,594.62,56.79,595.51,0,0,127,0,0,143,0,0,127,1.00)" />
<g onload="SubDivideTriangle(evt,55.56,594.62,55.56,594.62,56.79,595.51,0,0,143,0,0,143,0,0,127,1.00)" />
<polygon style= "fill: #00007F; opacity:1.00 " points="57.26,596.96 56.79,595.51 57.26,596.96 " />
<polygon style= "fill: #00007F; opacity:1.00 " points="56.79,595.51 56.79,595.51 57.26,596.96 " />
<g onload="SubDivideTriangle(evt,54.80,596.96,61.36,596.96,60.11,593.10,6,6,207,0,0,127,0,0,144,1.00)" />
<g onload="SubDivideTriangle(evt,54.80,596.96,60.11,593.10,56.83,590.72,6,6,207,0,0,144,0,0,173,1.00)" />
<g onload="SubDivideTriangle(evt,54.80,596.96,56.83,590.72,52.77,590.72,6,6,207,0,0,173,0,0,196,1.00)" />
<g onload="SubDivideTriangle(evt,54.80,596.96,52.77,590.72,49.49,593.10,6,6,207,0,0,196,0,0,205,1.00)" />
<g onload="SubDivideTriangle(evt,54.80,596.96,49.49,593.10,48.24,596.96,6,6,207,0,0,205,0,0,196,1.00)" />
<g onload="SubDivideTriangle(evt,54.80,596.96,48.24,596.96,49.49,600.82,6,6,207,0,0,196,0,0,173,1.00)" />
<g onload="SubDivideTriangle(evt,54.80,596.96,49.49,600.82,52.77,603.20,6,6,207,0,0,173,0,0,144,1.00)" />
<g onload="SubDivideTriangle(evt,54.80,596.96,52.77,603.20,56.83,603.20,6,6,207,0,0,144,0,0,127,1.00)" />
<g onload="SubDivideTriangle(evt,54.80,596.96,56.83,603.20,60.11,600.82,6,6,207,0,0,127,0,0,127,1.00)" />
<g onload="SubDivideTriangle(evt,54.80,596.96,60.11,600.82,61.36,596.96,6,6,207,0,0,127,0,0,127,1.00)" />
<line x1="166.25" y1="13.12"  x2="13.70" y2="13.12" style= "stroke: #000000;stroke-width:0.67; stroke-dasharray: 0 " /> 
<line x1="13.70" y1="13.12"  x2="13.70" y2="271.87" style= "stroke: #000000;stroke-width:0.67; stroke-dasharray: 0 " /> 
<line x1="13.70" y1="271.87"  x2="166.25" y2="271.87" style= "stroke: #000000;stroke-width:0.67; stroke-dasharray: 0 " /> 
<line x1="166.25" y1="271.87"  x2="166.25" y2="13.12" style= "stroke: #000000;stroke-width:0.67; stroke-dasharray: 0 " /> 
<line x1="28.71" y1="256.87"  x2="58.73" y2="256.87" style= "stroke: #000000;stroke-width:0.67; stroke-dasharray: 0 " /> 
<line x1="28.71" y1="241.87"  x2="58.73" y2="241.87" style= "stroke: #000000;stroke-width:0.67; stroke-dasharray: 0 " /> 
<line x1="28.71" y1="226.87"  x2="58.73" y2="226.87" style= "stroke: #000000;stroke-width:0.67; stroke-dasharray: 0 " /> 
<line x1="28.71" y1="211.87"  x2="58.73" y2="211.87" style= "stroke: #000000;stroke-width:0.67; stroke-dasharray: 0 " /> 
<line x1="28.71" y1="196.87"  x2="58.73" y2="196.87" style= "stroke: #000000;stroke-width:0.67; stroke-dasharray: 0 " /> 
<line x1="28.71" y1="181.87"  x2="58.73" y2="181.87" style= "stroke: #000000;stroke-width:0.67; stroke-dasharray: 0 " /> 
<line x1="28.71" y1="166.87"  x2="58.73" y2="166.87" style= "stroke: #000000;stroke-width:0.67; stroke-dasharray: 0 " /> 
<line x1="28.71" y1="151.87"  x2="58.73" y2="151.87" style= "stroke: #000000;stroke-width:0.67; stroke-dasharray: 0 " /> 
<line x1="28.71" y1="136.87"  x2="58.73" y2="136.87" style= "stroke: #000000;stroke-width:0.67; stroke-dasharray: 0 " /> 
<line x1="28.71" y1="121.87"  x2="58.73" y2="121.87" style= "stroke: #000000;stroke-width:0.67; stroke-dasharray: 0 " /> 
<line x1="28.71" y1="106.87"  x2="58.73" y2="106.87" style= "stroke: #000000;stroke-width:0.67; stroke-dasharray: 0 " /> 
<line x1="28.71" y1="91.87"  x2="58.73" y2="91.87" style= "stroke: #000000;stroke-width:0.67; stroke-dasharray: 0 " /> 
<line x1="28.71" y1="76.87"  x2="58.73" y2="76.87" style= "stroke: #000000;stroke-width:0.67; stroke-dasharray: 0 " /> 
<line x1="28.71" y1="256.87"  x2="28.71" y2="76.87" style= "stroke: #000000;stroke-width:0.67; stroke-dasharray: 0 " /> 
<line x1="28.71" y1="76.87"  x2="51.23" y2="76.87" style= "stroke: #000000;stroke-width:0.67; stroke-dasharray: 0 " /> 
<line x1="51.23" y1="76.87"  x2="51.23" y2="256.87" style= "stroke: #000000;stroke-width:0.67; stroke-dasharray: 0 " /> 
<line x1="51.23" y1="256.87"  x2="28.71" y2="256.87" style= "stroke: #000000;stroke-width:0.67; stroke-dasharray: 0 " /> 
<text x="28.71" y="61.87" style=" font-family:verdana; font-weight:normal; font-style:normal; font-size:15.99; fill:#000000;" > 
 (Avg: 75%) 
 </text>
<text x="28.71" y="43.12" style=" font-family:verdana; font-weight:normal; font-style:normal; font-size:15.99; fill:#000000;" > 
 S, Mises 
 </text>
<text x="66.24" y="260.62" style=" font-family:verdana; font-weight:normal; font-style:normal; font-size:15.99; fill:#000000;" > 
 +1.000e+06 
 </text>
<text x="66.24" y="245.62" style=" font-family:verdana; font-weight:normal; font-style:normal; font-size:15.99; fill:#000000;" > 
 +1.092e+07 
 </text>
<text x="66.24" y="230.62" style=" font-family:verdana; font-weight:normal; font-style:normal; font-size:15.99; fill:#000000;" > 
 +2.083e+07 
 </text>
<text x="66.24" y="215.62" style=" font-family:verdana; font-weight:normal; font-style:normal; font-size:15.99; fill:#000000;" > 
 +3.075e+07 
 </text>
<text x="66.24" y="200.62" style=" font-family:verdana; font-weight:normal; font-style:normal; font-size:15.99; fill:#000000;" > 
 +4.067e+07 
 </text>
<text x="66.24" y="185.62" style=" font-family:verdana; font-weight:normal; font-style:normal; font-size:15.99; fill:#000000;" > 
 +5.058e+07 
 </text>
<text x="66.24" y="170.62" style=" font-family:verdana; font-weight:normal; font-style:normal; font-size:15.99; fill:#000000;" > 
 +6.050e+07 
 </text>
<text x="66.24" y="155.62" style=" font-family:verdana; font-weight:normal; font-style:normal; font-size:15.99; fill:#000000;" > 
 +7.042e+07 
 </text>
<text x="66.24" y="140.62" style=" font-family:verdana; font-weight:normal; font-style:normal; font-size:15.99; fill:#000000;" > 
 +8.033e+07 
 </text>
<text x="66.24" y="125.62" style=" font-family:verdana; font-weight:normal; font-style:normal; font-size:15.99; fill:#000000;" > 
 +9.025e+07 
 </text>
<text x="66.24" y="110.62" style=" font-family:verdana; font-weight:normal; font-style:normal; font-size:15.99; fill:#000000;" > 
 +1.002e+08 
 </text>
<text x="66.24" y="95.62" style=" font-family:verdana; font-weight:normal; font-style:normal; font-size:15.99; fill:#000000;" > 
 +1.101e+08 
 </text>
<text x="66.24" y="80.62" style=" font-family:verdana; font-weight:normal; font-style:normal; font-size:15.99; fill:#000000;" > 
 +1.200e+08 
 </text>
<text x="96.56" y="592.28" style=" font-family:verdana; font-weight:normal; font-style:normal; font-size:15.99; fill:#000000;" > 
 Step: cantilever beam 
 </text>
<text x="96.56" y="608.78" style=" font-family:verdana; font-weight:normal; font-style:normal; font-size:15.99; fill:#000000;" > 
 Increment      1: Step Time =    1.000 
 </text>
<text x="96.56" y="625.28" style=" font-family:verdana; font-weight:normal; font-style:normal; font-size:15.99; fill:#000000;" > 
 Primary Var: S, Mises 
 </text>
<text x="96.56" y="641.78" style=" font-family:verdana; font-weight:normal; font-style:normal; font-size:15.99; fill:#000000;" > 
 Deformed Var: U   Deformation Scale Factor: +1.000e+00 
 </text>
<text x="96.56" y="539.80" style=" font-family:verdana; font-weight:normal; font-style:normal; font-size:15.99; fill:#000000;" > 
  
 </text>
<text x="96.56" y="556.30" style=" font-family:verdana; font-weight:normal; font-style:normal; font-size:15.99; fill:#000000;" > 
 ODB: 12x2-CPS4R.odb    Abaqus/Standard 3DEXPERIENCE R2016x    Fri Mar 20 19:34:17 CET 2020 
 </text>
<text x="104.64" y="601.46" style=" font-family:verdana; font-weight:bold; font-style:normal; font-size:15.99; fill:#000000;" > 
 X 
 </text>
<text x="49.30" y="546.16" style=" font-family:verdana; font-weight:bold; font-style:normal; font-size:15.99; fill:#000000;" > 
 Y 
 </text>
<text x="49.80" y="601.46" style=" font-family:verdana; font-weight:bold; font-style:normal; font-size:15.99; fill:#000000;" > 
 Z 
 </text>
</svg>
</svg>
