<?xml version="1.0" encoding="UTF-8" standalone="no"?>
<!DOCTYPE svg PUBLIC "-//W3C//DTD SVG 1.0//EN"
"http://www.w3.org/Graphics/SVG/1.1/DTD/svg10.dtd">
<svg xmlns="http://www.w3.org/2000/svg" xmlns:xlink="http://www.w3.org/1999/xlink" width=" 685.00" height="656.00" >

<svg x="0.00" y="0.00" width=" 685.00" height="656.00" >
<rect x="0" y="0" width="685.00" height="656.00" 	 style= "fill: #FFFFFF; " /> 
<polygon style= "fill: #0000CF; opacity:1.00 " points="566.27,333.48 566.43,324.53 611.03,334.26 " />
<polygon style= "fill: #0000CF; opacity:1.00 " points="566.43,324.53 611.18,325.31 611.03,334.26 " />
<polygon style= "fill: #004BCF; opacity:1.00 " points="521.52,332.71 521.67,323.76 549.51,329.82 " />
<polygon style= "fill: #004BCF; opacity:1.00 " points="544.20,333.10 521.52,332.71 549.51,329.82 " />
<polygon style= "fill: #0000CF; opacity:1.00 " points="544.20,333.10 549.51,329.82 566.27,333.48 " />
<polygon style= "fill: #0000CF; opacity:1.00 " points="566.43,324.53 566.27,333.48 549.51,329.82 " />
<polygon style= "fill: #0000CF; opacity:1.00 " points="553.50,324.31 566.43,324.53 549.51,329.82 " />
<polygon style= "fill: #004BCF; opacity:1.00 " points="553.50,324.31 549.51,329.82 521.67,323.76 " />
<polygon style= "fill: #0096CF; opacity:1.00 " points="476.76,331.96 476.91,323.01 495.74,327.11 " />
<polygon style= "fill: #0096CF; opacity:1.00 " points="483.56,332.07 476.76,331.96 495.74,327.11 " />
<polygon style= "fill: #004BCF; opacity:1.00 " points="483.56,332.07 495.74,327.11 521.52,332.71 " />
<polygon style= "fill: #004BCF; opacity:1.00 " points="521.67,323.76 521.52,332.71 495.74,327.11 " />
<polygon style= "fill: #004BCF; opacity:1.00 " points="500.94,323.42 521.67,323.76 495.74,327.11 " />
<polygon style= "fill: #0096CF; opacity:1.00 " points="500.94,323.42 495.74,327.11 476.91,323.01 " />
<polygon style= "fill: #0096CF; opacity:1.00 " points="476.76,331.96 432.01,331.24 432.05,328.31 " />
<polygon style= "fill: #0096CF; opacity:1.00 " points="443.64,324.79 476.76,331.96 432.05,328.31 " />
<polygon style= "fill: #00CFBB; opacity:1.00 " points="443.64,324.79 432.05,328.31 432.15,322.30 " />
<polygon style= "fill: #0096CF; opacity:1.00 " points="476.91,323.01 476.76,331.96 443.64,324.79 " />
<polygon style= "fill: #0096CF; opacity:1.00 " points="448.35,322.56 476.91,323.01 443.64,324.79 " />
<polygon style= "fill: #00CFBB; opacity:1.00 " points="448.35,322.56 443.64,324.79 432.15,322.30 " />
<polygon style= "fill: #00CF71; opacity:1.00 " points="387.35,324.12 387.38,321.63 392.83,322.80 " />
<polygon style= "fill: #00CFBB; opacity:1.00 " points="387.35,324.12 392.83,322.80 426.89,330.14 " />
<polygon style= "fill: #00CFBB; opacity:1.00 " points="387.25,330.57 387.35,324.12 426.89,330.14 " />
<polygon style= "fill: #00CFBB; opacity:1.00 " points="422.88,331.11 387.25,330.57 426.89,330.14 " />
<polygon style= "fill: #0096CF; opacity:1.00 " points="422.88,331.11 426.89,330.14 432.01,331.24 " />
<polygon style= "fill: #0096CF; opacity:1.00 " points="432.05,328.31 432.01,331.24 426.89,330.14 " />
<polygon style= "fill: #00CFBB; opacity:1.00 " points="432.05,328.31 426.89,330.14 392.83,322.80 " />
<polygon style= "fill: #00CFBB; opacity:1.00 " points="432.15,322.30 432.05,328.31 392.83,322.80 " />
<polygon style= "fill: #00CFBB; opacity:1.00 " points="395.79,321.75 432.15,322.30 392.83,322.80 " />
<polygon style= "fill: #00CF71; opacity:1.00 " points="395.79,321.75 392.83,322.80 387.38,321.63 " />
<polygon style= "fill: #00CF71; opacity:1.00 " points="342.62,321.16 342.99,321.09 374.32,327.80 " />
<polygon style= "fill: #00CF71; opacity:1.00 " points="342.50,329.95 342.62,321.16 374.32,327.80 " />
<polygon style= "fill: #00CF71; opacity:1.00 " points="362.20,330.23 342.50,329.95 374.32,327.80 " />
<polygon style= "fill: #00CFBB; opacity:1.00 " points="362.20,330.23 374.32,327.80 387.25,330.57 " />
<polygon style= "fill: #00CFBB; opacity:1.00 " points="387.35,324.12 387.25,330.57 374.32,327.80 " />
<polygon style= "fill: #00CF71; opacity:1.00 " points="387.35,324.12 374.32,327.80 342.99,321.09 " />
<polygon style= "fill: #00CF71; opacity:1.00 " points="387.38,321.63 387.35,324.12 342.99,321.09 " />
<polygon style= "fill: #00CF25; opacity:1.00 " points="297.75,329.40 297.85,320.46 322.90,325.79 " />
<polygon style= "fill: #00CF25; opacity:1.00 " points="301.53,329.45 297.75,329.40 322.90,325.79 " />
<polygon style= "fill: #00CF71; opacity:1.00 " points="301.53,329.45 322.90,325.79 342.50,329.95 " />
<polygon style= "fill: #00CF25; opacity:1.00 " points="322.90,325.79 297.85,320.46 342.62,321.16 " />
<polygon style= "fill: #00CF71; opacity:1.00 " points="322.90,325.79 342.62,321.16 342.50,329.95 " />
<polygon style= "fill: #00CF25; opacity:1.00 " points="297.75,329.40 252.99,328.93 253.01,326.97 " />
<polygon style= "fill: #00CF25; opacity:1.00 " points="272.43,324.06 297.75,329.40 253.01,326.97 " />
<polygon style= "fill: #25CF00; opacity:1.00 " points="272.43,324.06 253.01,326.97 253.08,319.98 " />
<polygon style= "fill: #00CF25; opacity:1.00 " points="297.85,320.46 297.75,329.40 272.43,324.06 " />
<polygon style= "fill: #00CF25; opacity:1.00 " points="290.68,320.38 297.85,320.46 272.43,324.06 " />
<polygon style= "fill: #25CF00; opacity:1.00 " points="290.68,320.38 272.43,324.06 253.08,319.98 " />
<polygon style= "fill: #71CF00; opacity:1.00 " points="208.27,324.52 208.30,319.59 222.58,322.57 " />
<polygon style= "fill: #25CF00; opacity:1.00 " points="208.27,324.52 222.58,322.57 247.91,327.86 " />
<polygon style= "fill: #25CF00; opacity:1.00 " points="208.24,328.54 208.27,324.52 247.91,327.86 " />
<polygon style= "fill: #00CF25; opacity:1.00 " points="253.01,326.97 252.99,328.93 247.91,327.86 " />
<polygon style= "fill: #25CF00; opacity:1.00 " points="253.01,326.97 247.91,327.86 222.58,322.57 " />
<polygon style= "fill: #25CF00; opacity:1.00 " points="253.08,319.98 253.01,326.97 222.58,322.57 " />
<polygon style= "fill: #25CF00; opacity:1.00 " points="238.09,319.85 253.08,319.98 222.58,322.57 " />
<polygon style= "fill: #71CF00; opacity:1.00 " points="238.09,319.85 222.58,322.57 208.30,319.59 " />
<polygon style= "fill: #BBCF00; opacity:1.00 " points="163.51,322.63 163.53,319.30 173.78,321.42 " />
<polygon style= "fill: #71CF00; opacity:1.00 " points="163.51,322.63 173.78,321.42 197.38,326.29 " />
<polygon style= "fill: #71CF00; opacity:1.00 " points="163.48,328.25 163.51,322.63 197.38,326.29 " />
<polygon style= "fill: #71CF00; opacity:1.00 " points="179.89,328.35 163.48,328.25 197.38,326.29 " />
<polygon style= "fill: #25CF00; opacity:1.00 " points="179.89,328.35 197.38,326.29 208.24,328.54 " />
<polygon style= "fill: #25CF00; opacity:1.00 " points="208.27,324.52 208.24,328.54 197.38,326.29 " />
<polygon style= "fill: #71CF00; opacity:1.00 " points="208.27,324.52 197.38,326.29 173.78,321.42 " />
<polygon style= "fill: #71CF00; opacity:1.00 " points="208.30,319.59 208.27,324.52 173.78,321.42 " />
<polygon style= "fill: #71CF00; opacity:1.00 " points="185.86,319.45 208.30,319.59 173.78,321.42 " />
<polygon style= "fill: #BBCF00; opacity:1.00 " points="185.86,319.45 173.78,321.42 163.53,319.30 " />
<polygon style= "fill: #CF9600; opacity:1.00 " points="118.75,320.77 118.75,319.12 123.71,320.13 " />
<polygon style= "fill: #BBCF00; opacity:1.00 " points="118.75,320.77 123.71,320.13 146.65,324.81 " />
<polygon style= "fill: #BBCF00; opacity:1.00 " points="118.73,328.06 118.75,320.77 146.65,324.81 " />
<polygon style= "fill: #BBCF00; opacity:1.00 " points="121.53,328.07 118.73,328.06 146.65,324.81 " />
<polygon style= "fill: #71CF00; opacity:1.00 " points="121.53,328.07 146.65,324.81 163.48,328.25 " />
<polygon style= "fill: #71CF00; opacity:1.00 " points="163.51,322.63 163.48,328.25 146.65,324.81 " />
<polygon style= "fill: #BBCF00; opacity:1.00 " points="163.51,322.63 146.65,324.81 123.71,320.13 " />
<polygon style= "fill: #BBCF00; opacity:1.00 " points="163.53,319.30 163.51,322.63 123.71,320.13 " />
<polygon style= "fill: #BBCF00; opacity:1.00 " points="118.73,328.06 73.97,328.00 73.97,324.19 " />
<polygon style= "fill: #BBCF00; opacity:1.00 " points="94.69,323.23 118.73,328.06 73.97,324.19 " />
<polygon style= "fill: #CF9600; opacity:1.00 " points="94.69,323.23 73.97,324.19 73.97,319.06 " />
<polygon style= "fill: #CF9600; opacity:1.00 " points="73.97,319.06 118.75,319.12 118.75,320.77 " />
<polygon style= "fill: #CF9600; opacity:1.00 " points="94.69,323.23 73.97,319.06 118.75,320.77 " />
<polygon style= "fill: #BBCF00; opacity:1.00 " points="94.69,323.23 118.75,320.77 118.73,328.06 " />
<polygon style= "fill: #0000CF; opacity:1.00 " points="566.12,342.42 566.27,333.48 610.87,343.20 " />
<polygon style= "fill: #0000CF; opacity:1.00 " points="566.27,333.48 611.03,334.26 610.87,343.20 " />
<polygon style= "fill: #004BCF; opacity:1.00 " points="521.37,341.65 521.52,332.71 549.02,338.70 " />
<polygon style= "fill: #004BCF; opacity:1.00 " points="553.64,342.21 521.37,341.65 549.02,338.70 " />
<polygon style= "fill: #0000CF; opacity:1.00 " points="553.64,342.21 549.02,338.70 566.12,342.42 " />
<polygon style= "fill: #0000CF; opacity:1.00 " points="566.27,333.48 566.12,342.42 549.02,338.70 " />
<polygon style= "fill: #0000CF; opacity:1.00 " points="544.20,333.10 566.27,333.48 549.02,338.70 " />
<polygon style= "fill: #004BCF; opacity:1.00 " points="544.20,333.10 549.02,338.70 521.52,332.71 " />
<polygon style= "fill: #0096CF; opacity:1.00 " points="476.62,340.90 476.76,331.96 486.57,334.09 " />
<polygon style= "fill: #0096CF; opacity:1.00 " points="500.57,341.30 476.62,340.90 486.57,334.09 " />
<polygon style= "fill: #004BCF; opacity:1.00 " points="500.57,341.30 486.57,334.09 521.37,341.65 " />
<polygon style= "fill: #004BCF; opacity:1.00 " points="521.52,332.71 521.37,341.65 486.57,334.09 " />
<polygon style= "fill: #004BCF; opacity:1.00 " points="483.56,332.07 521.52,332.71 486.57,334.09 " />
<polygon style= "fill: #0096CF; opacity:1.00 " points="483.56,332.07 486.57,334.09 476.76,331.96 " />
<polygon style= "fill: #0096CF; opacity:1.00 " points="432.01,331.24 476.62,340.90 448.07,340.45 " />
<polygon style= "fill: #0096CF; opacity:1.00 " points="431.96,334.18 432.01,331.24 448.07,340.45 " />
<polygon style= "fill: #00CFBB; opacity:1.00 " points="431.96,334.18 448.07,340.45 431.87,340.19 " />
<polygon style= "fill: #0096CF; opacity:1.00 " points="432.01,331.24 476.76,331.96 476.62,340.90 " />
<polygon style= "fill: #00CFBB; opacity:1.00 " points="387.25,330.57 431.87,340.19 395.53,339.64 " />
<polygon style= "fill: #00CFBB; opacity:1.00 " points="387.16,337.02 387.25,330.57 395.53,339.64 " />
<polygon style= "fill: #00CF71; opacity:1.00 " points="387.16,337.02 395.53,339.64 387.13,339.52 " />
<polygon style= "fill: #00CFBB; opacity:1.00 " points="431.87,340.19 387.25,330.57 422.88,331.11 " />
<polygon style= "fill: #00CFBB; opacity:1.00 " points="431.96,334.18 431.87,340.19 422.88,331.11 " />
<polygon style= "fill: #0096CF; opacity:1.00 " points="431.96,334.18 422.88,331.11 432.01,331.24 " />
<polygon style= "fill: #00CF71; opacity:1.00 " points="342.50,329.95 387.13,339.52 343.00,338.91 " />
<polygon style= "fill: #00CF71; opacity:1.00 " points="387.13,339.52 342.50,329.95 362.20,330.23 " />
<polygon style= "fill: #00CF71; opacity:1.00 " points="387.16,337.02 387.13,339.52 362.20,330.23 " />
<polygon style= "fill: #00CFBB; opacity:1.00 " points="387.16,337.02 362.20,330.23 387.25,330.57 " />
<polygon style= "fill: #00CF25; opacity:1.00 " points="297.64,338.35 297.75,329.40 342.38,338.90 " />
<polygon style= "fill: #00CF25; opacity:1.00 " points="342.38,338.90 297.75,329.40 301.53,329.45 " />
<polygon style= "fill: #00CF25; opacity:1.00 " points="342.38,338.75 342.38,338.90 301.53,329.45 " />
<polygon style= "fill: #00CF71; opacity:1.00 " points="342.38,338.75 301.53,329.45 342.50,329.95 " />
<polygon style= "fill: #00CF25; opacity:1.00 " points="252.99,328.93 297.64,338.35 290.47,338.27 " />
<polygon style= "fill: #00CF25; opacity:1.00 " points="252.97,330.88 252.99,328.93 290.47,338.27 " />
<polygon style= "fill: #25CF00; opacity:1.00 " points="252.97,330.88 290.47,338.27 252.90,337.87 " />
<polygon style= "fill: #00CF25; opacity:1.00 " points="252.99,328.93 297.75,329.40 297.64,338.35 " />
<polygon style= "fill: #25CF00; opacity:1.00 " points="208.24,328.54 252.90,337.87 237.93,337.74 " />
<polygon style= "fill: #25CF00; opacity:1.00 " points="208.21,332.56 208.24,328.54 237.93,337.74 " />
<polygon style= "fill: #71CF00; opacity:1.00 " points="208.21,332.56 237.93,337.74 208.17,337.48 " />
<polygon style= "fill: #25CF00; opacity:1.00 " points="252.90,337.87 208.24,328.54 240.86,328.82 " />
<polygon style= "fill: #25CF00; opacity:1.00 " points="252.97,330.88 252.90,337.87 240.86,328.82 " />
<polygon style= "fill: #00CF25; opacity:1.00 " points="252.97,330.88 240.86,328.82 252.99,328.93 " />
<polygon style= "fill: #71CF00; opacity:1.00 " points="163.48,328.25 208.17,337.48 185.75,337.34 " />
<polygon style= "fill: #71CF00; opacity:1.00 " points="163.45,333.86 163.48,328.25 185.75,337.34 " />
<polygon style= "fill: #BBCF00; opacity:1.00 " points="163.45,333.86 185.75,337.34 163.43,337.19 " />
<polygon style= "fill: #71CF00; opacity:1.00 " points="208.17,337.48 163.48,328.25 179.89,328.35 " />
<polygon style= "fill: #71CF00; opacity:1.00 " points="208.21,332.56 208.17,337.48 179.89,328.35 " />
<polygon style= "fill: #25CF00; opacity:1.00 " points="208.21,332.56 179.89,328.35 208.24,328.54 " />
<polygon style= "fill: #BBCF00; opacity:1.00 " points="118.73,328.06 163.43,337.19 131.06,337.06 " />
<polygon style= "fill: #BBCF00; opacity:1.00 " points="118.71,335.35 118.73,328.06 131.06,337.06 " />
<polygon style= "fill: #CF9600; opacity:1.00 " points="118.71,335.35 131.06,337.06 118.70,337.01 " />
<polygon style= "fill: #BBCF00; opacity:1.00 " points="163.43,337.19 118.73,328.06 121.53,328.07 " />
<polygon style= "fill: #BBCF00; opacity:1.00 " points="163.45,333.86 163.43,337.19 121.53,328.07 " />
<polygon style= "fill: #71CF00; opacity:1.00 " points="163.45,333.86 121.53,328.07 163.48,328.25 " />
<polygon style= "fill: #CF9600; opacity:1.00 " points="118.70,337.01 73.97,336.94 73.97,331.81 " />
<polygon style= "fill: #CF9600; opacity:1.00 " points="106.98,334.65 118.70,337.01 73.97,331.81 " />
<polygon style= "fill: #BBCF00; opacity:1.00 " points="106.98,334.65 73.97,331.81 73.97,328.00 " />
<polygon style= "fill: #BBCF00; opacity:1.00 " points="73.97,328.00 118.73,328.06 118.71,335.35 " />
<polygon style= "fill: #BBCF00; opacity:1.00 " points="106.98,334.65 73.97,328.00 118.71,335.35 " />
<polygon style= "fill: #CF9600; opacity:1.00 " points="106.98,334.65 118.71,335.35 118.70,337.01 " />
<line x1="73.97" y1="336.94"  x2="118.70" y2="337.01" style= "stroke: #000000;stroke-width:0.76; stroke-dasharray: 0 " /> 
<line x1="118.70" y1="337.01"  x2="118.73" y2="328.06" style= "stroke: #000000;stroke-width:0.76; stroke-dasharray: 0 " /> 
<line x1="118.73" y1="328.06"  x2="73.97" y2="328.00" style= "stroke: #000000;stroke-width:0.76; stroke-dasharray: 0 " /> 
<line x1="73.97" y1="328.00"  x2="73.97" y2="336.94" style= "stroke: #000000;stroke-width:0.76; stroke-dasharray: 0 " /> 
<line x1="118.70" y1="337.01"  x2="163.43" y2="337.19" style= "stroke: #000000;stroke-width:0.76; stroke-dasharray: 0 " /> 
<line x1="163.43" y1="337.19"  x2="163.48" y2="328.25" style= "stroke: #000000;stroke-width:0.76; stroke-dasharray: 0 " /> 
<line x1="163.48" y1="328.25"  x2="118.73" y2="328.06" style= "stroke: #000000;stroke-width:0.76; stroke-dasharray: 0 " /> 
<line x1="118.73" y1="328.06"  x2="118.75" y2="319.12" style= "stroke: #000000;stroke-width:0.76; stroke-dasharray: 0 " /> 
<line x1="118.75" y1="319.12"  x2="73.97" y2="319.06" style= "stroke: #000000;stroke-width:0.76; stroke-dasharray: 0 " /> 
<line x1="73.97" y1="319.06"  x2="73.97" y2="328.00" style= "stroke: #000000;stroke-width:0.76; stroke-dasharray: 0 " /> 
<line x1="163.43" y1="337.19"  x2="208.17" y2="337.48" style= "stroke: #000000;stroke-width:0.76; stroke-dasharray: 0 " /> 
<line x1="208.17" y1="337.48"  x2="208.24" y2="328.54" style= "stroke: #000000;stroke-width:0.76; stroke-dasharray: 0 " /> 
<line x1="208.24" y1="328.54"  x2="163.48" y2="328.25" style= "stroke: #000000;stroke-width:0.76; stroke-dasharray: 0 " /> 
<line x1="163.48" y1="328.25"  x2="163.53" y2="319.30" style= "stroke: #000000;stroke-width:0.76; stroke-dasharray: 0 " /> 
<line x1="163.53" y1="319.30"  x2="118.75" y2="319.12" style= "stroke: #000000;stroke-width:0.76; stroke-dasharray: 0 " /> 
<line x1="208.17" y1="337.48"  x2="252.90" y2="337.87" style= "stroke: #000000;stroke-width:0.76; stroke-dasharray: 0 " /> 
<line x1="252.90" y1="337.87"  x2="252.99" y2="328.93" style= "stroke: #000000;stroke-width:0.76; stroke-dasharray: 0 " /> 
<line x1="252.99" y1="328.93"  x2="208.24" y2="328.54" style= "stroke: #000000;stroke-width:0.76; stroke-dasharray: 0 " /> 
<line x1="208.24" y1="328.54"  x2="208.30" y2="319.59" style= "stroke: #000000;stroke-width:0.76; stroke-dasharray: 0 " /> 
<line x1="208.30" y1="319.59"  x2="163.53" y2="319.30" style= "stroke: #000000;stroke-width:0.76; stroke-dasharray: 0 " /> 
<line x1="252.90" y1="337.87"  x2="297.64" y2="338.35" style= "stroke: #000000;stroke-width:0.76; stroke-dasharray: 0 " /> 
<line x1="297.64" y1="338.35"  x2="297.75" y2="329.40" style= "stroke: #000000;stroke-width:0.76; stroke-dasharray: 0 " /> 
<line x1="297.75" y1="329.40"  x2="252.99" y2="328.93" style= "stroke: #000000;stroke-width:0.76; stroke-dasharray: 0 " /> 
<line x1="252.99" y1="328.93"  x2="253.08" y2="319.98" style= "stroke: #000000;stroke-width:0.76; stroke-dasharray: 0 " /> 
<line x1="253.08" y1="319.98"  x2="208.30" y2="319.59" style= "stroke: #000000;stroke-width:0.76; stroke-dasharray: 0 " /> 
<line x1="297.64" y1="338.35"  x2="342.38" y2="338.90" style= "stroke: #000000;stroke-width:0.76; stroke-dasharray: 0 " /> 
<line x1="342.38" y1="338.90"  x2="342.50" y2="329.95" style= "stroke: #000000;stroke-width:0.76; stroke-dasharray: 0 " /> 
<line x1="342.50" y1="329.95"  x2="297.75" y2="329.40" style= "stroke: #000000;stroke-width:0.76; stroke-dasharray: 0 " /> 
<line x1="297.75" y1="329.40"  x2="297.85" y2="320.46" style= "stroke: #000000;stroke-width:0.76; stroke-dasharray: 0 " /> 
<line x1="297.85" y1="320.46"  x2="253.08" y2="319.98" style= "stroke: #000000;stroke-width:0.76; stroke-dasharray: 0 " /> 
<line x1="342.38" y1="338.90"  x2="387.13" y2="339.52" style= "stroke: #000000;stroke-width:0.76; stroke-dasharray: 0 " /> 
<line x1="387.13" y1="339.52"  x2="387.25" y2="330.57" style= "stroke: #000000;stroke-width:0.76; stroke-dasharray: 0 " /> 
<line x1="387.25" y1="330.57"  x2="342.50" y2="329.95" style= "stroke: #000000;stroke-width:0.76; stroke-dasharray: 0 " /> 
<line x1="342.50" y1="329.95"  x2="342.62" y2="321.01" style= "stroke: #000000;stroke-width:0.76; stroke-dasharray: 0 " /> 
<line x1="342.62" y1="321.01"  x2="297.85" y2="320.46" style= "stroke: #000000;stroke-width:0.76; stroke-dasharray: 0 " /> 
<line x1="387.13" y1="339.52"  x2="431.87" y2="340.19" style= "stroke: #000000;stroke-width:0.76; stroke-dasharray: 0 " /> 
<line x1="431.87" y1="340.19"  x2="432.01" y2="331.24" style= "stroke: #000000;stroke-width:0.76; stroke-dasharray: 0 " /> 
<line x1="432.01" y1="331.24"  x2="387.25" y2="330.57" style= "stroke: #000000;stroke-width:0.76; stroke-dasharray: 0 " /> 
<line x1="387.25" y1="330.57"  x2="387.38" y2="321.63" style= "stroke: #000000;stroke-width:0.76; stroke-dasharray: 0 " /> 
<line x1="387.38" y1="321.63"  x2="342.62" y2="321.01" style= "stroke: #000000;stroke-width:0.76; stroke-dasharray: 0 " /> 
<line x1="431.87" y1="340.19"  x2="476.62" y2="340.90" style= "stroke: #000000;stroke-width:0.76; stroke-dasharray: 0 " /> 
<line x1="476.62" y1="340.90"  x2="476.76" y2="331.96" style= "stroke: #000000;stroke-width:0.76; stroke-dasharray: 0 " /> 
<line x1="476.76" y1="331.96"  x2="432.01" y2="331.24" style= "stroke: #000000;stroke-width:0.76; stroke-dasharray: 0 " /> 
<line x1="432.01" y1="331.24"  x2="432.15" y2="322.30" style= "stroke: #000000;stroke-width:0.76; stroke-dasharray: 0 " /> 
<line x1="432.15" y1="322.30"  x2="387.38" y2="321.63" style= "stroke: #000000;stroke-width:0.76; stroke-dasharray: 0 " /> 
<line x1="476.62" y1="340.90"  x2="521.37" y2="341.65" style= "stroke: #000000;stroke-width:0.76; stroke-dasharray: 0 " /> 
<line x1="521.37" y1="341.65"  x2="521.52" y2="332.71" style= "stroke: #000000;stroke-width:0.76; stroke-dasharray: 0 " /> 
<line x1="521.52" y1="332.71"  x2="476.76" y2="331.96" style= "stroke: #000000;stroke-width:0.76; stroke-dasharray: 0 " /> 
<line x1="476.76" y1="331.96"  x2="476.91" y2="323.01" style= "stroke: #000000;stroke-width:0.76; stroke-dasharray: 0 " /> 
<line x1="476.91" y1="323.01"  x2="432.15" y2="322.30" style= "stroke: #000000;stroke-width:0.76; stroke-dasharray: 0 " /> 
<line x1="521.37" y1="341.65"  x2="566.12" y2="342.42" style= "stroke: #000000;stroke-width:0.76; stroke-dasharray: 0 " /> 
<line x1="566.12" y1="342.42"  x2="566.27" y2="333.48" style= "stroke: #000000;stroke-width:0.76; stroke-dasharray: 0 " /> 
<line x1="566.27" y1="333.48"  x2="521.52" y2="332.71" style= "stroke: #000000;stroke-width:0.76; stroke-dasharray: 0 " /> 
<line x1="521.52" y1="332.71"  x2="521.67" y2="323.76" style= "stroke: #000000;stroke-width:0.76; stroke-dasharray: 0 " /> 
<line x1="521.67" y1="323.76"  x2="476.91" y2="323.01" style= "stroke: #000000;stroke-width:0.76; stroke-dasharray: 0 " /> 
<line x1="566.12" y1="342.42"  x2="610.87" y2="343.20" style= "stroke: #000000;stroke-width:0.76; stroke-dasharray: 0 " /> 
<line x1="610.87" y1="343.20"  x2="611.03" y2="334.26" style= "stroke: #000000;stroke-width:0.76; stroke-dasharray: 0 " /> 
<line x1="611.03" y1="334.26"  x2="566.27" y2="333.48" style= "stroke: #000000;stroke-width:0.76; stroke-dasharray: 0 " /> 
<line x1="566.27" y1="333.48"  x2="566.43" y2="324.53" style= "stroke: #000000;stroke-width:0.76; stroke-dasharray: 0 " /> 
<line x1="566.43" y1="324.53"  x2="521.67" y2="323.76" style= "stroke: #000000;stroke-width:0.76; stroke-dasharray: 0 " /> 
<line x1="611.03" y1="334.26"  x2="611.18" y2="325.31" style= "stroke: #000000;stroke-width:0.76; stroke-dasharray: 0 " /> 
<line x1="611.18" y1="325.31"  x2="566.43" y2="324.53" style= "stroke: #000000;stroke-width:0.76; stroke-dasharray: 0 " /> 
<polygon style= "fill: #0000FF; opacity:1.00 " points="28.71,256.87 51.23,256.87 28.71,241.87 " />
<polygon style= "fill: #0000FF; opacity:1.00 " points="51.23,256.87 51.23,241.87 28.71,241.87 " />
<polygon style= "fill: #005DFF; opacity:1.00 " points="28.71,241.87 51.23,241.87 28.71,226.87 " />
<polygon style= "fill: #005DFF; opacity:1.00 " points="51.23,241.87 51.23,226.87 28.71,226.87 " />
<polygon style= "fill: #00B9FF; opacity:1.00 " points="28.71,226.87 51.23,226.87 28.71,211.87 " />
<polygon style= "fill: #00B9FF; opacity:1.00 " points="51.23,226.87 51.23,211.87 28.71,211.87 " />
<polygon style= "fill: #00FFE8; opacity:1.00 " points="28.71,211.87 51.23,211.87 28.71,196.87 " />
<polygon style= "fill: #00FFE8; opacity:1.00 " points="51.23,211.87 51.23,196.87 28.71,196.87 " />
<polygon style= "fill: #00FF8B; opacity:1.00 " points="28.71,196.87 51.23,196.87 28.71,181.87 " />
<polygon style= "fill: #00FF8B; opacity:1.00 " points="51.23,196.87 51.23,181.87 28.71,181.87 " />
<polygon style= "fill: #00FF2E; opacity:1.00 " points="28.71,181.87 51.23,181.87 28.71,166.87 " />
<polygon style= "fill: #00FF2E; opacity:1.00 " points="51.23,181.87 51.23,166.87 28.71,166.87 " />
<polygon style= "fill: #2EFF00; opacity:1.00 " points="28.71,166.87 51.23,166.87 28.71,151.87 " />
<polygon style= "fill: #2EFF00; opacity:1.00 " points="51.23,166.87 51.23,151.87 28.71,151.87 " />
<polygon style= "fill: #8BFF00; opacity:1.00 " points="28.71,151.87 51.23,151.87 28.71,136.87 " />
<polygon style= "fill: #8BFF00; opacity:1.00 " points="51.23,151.87 51.23,136.87 28.71,136.87 " />
<polygon style= "fill: #E8FF00; opacity:1.00 " points="28.71,136.87 51.23,136.87 28.71,121.87 " />
<polygon style= "fill: #E8FF00; opacity:1.00 " points="51.23,136.87 51.23,121.87 28.71,121.87 " />
<polygon style= "fill: #FFB900; opacity:1.00 " points="28.71,121.87 51.23,121.87 28.71,106.87 " />
<polygon style= "fill: #FFB900; opacity:1.00 " points="51.23,121.87 51.23,106.87 28.71,106.87 " />
<polygon style= "fill: #FF5D00; opacity:1.00 " points="28.71,106.87 51.23,106.87 28.71,91.87 " />
<polygon style= "fill: #FF5D00; opacity:1.00 " points="51.23,106.87 51.23,91.87 28.71,91.87 " />
<polygon style= "fill: #FF0000; opacity:1.00 " points="28.71,91.87 51.23,91.87 28.71,76.87 " />
<polygon style= "fill: #FF0000; opacity:1.00 " points="51.23,91.87 51.23,76.87 28.71,76.87 " />
<polygon style= "fill: #A90000; opacity:1.00 " points="54.80,596.96 54.80,598.41 54.80,599.30 " />
<polygon style= "fill: #A90000; opacity:1.00 " points="54.80,596.96 54.80,599.30 54.80,599.30 " />
<polygon style= "fill: #A90000; opacity:1.00 " points="54.80,596.96 54.80,599.30 54.80,598.41 " />
<polygon style= "fill: #A90000; opacity:1.00 " points="54.80,596.96 54.80,598.41 54.80,596.96 " />
<polygon style= "fill: #A90000; opacity:1.00 " points="54.80,596.96 54.80,596.96 54.80,595.51 " />
<polygon style= "fill: #A90000; opacity:1.00 " points="54.80,596.96 54.80,595.51 54.80,594.62 " />
<polygon style= "fill: #A90000; opacity:1.00 " points="54.80,596.96 54.80,594.62 54.80,594.62 " />
<polygon style= "fill: #A90000; opacity:1.00 " points="54.80,596.96 54.80,594.62 54.80,595.51 " />
<polygon style= "fill: #A90000; opacity:1.00 " points="54.80,596.96 54.80,595.51 54.80,596.96 " />
<polygon style= "fill: #7F0000; opacity:1.00 " points="80.40,596.96 80.40,595.51 80.40,594.62 " />
<polygon style= "fill: #7F0000; opacity:1.00 " points="80.40,596.96 80.40,594.62 80.40,594.62 " />
<polygon style= "fill: #7F0000; opacity:1.00 " points="80.40,596.96 80.40,594.62 80.40,595.51 " />
<polygon style= "fill: #7F0000; opacity:1.00 " points="80.40,596.96 80.40,595.51 80.40,596.96 " />
<polygon style= "fill: #7F0000; opacity:1.00 " points="80.40,596.96 80.40,596.96 80.40,598.41 " />
<polygon style= "fill: #7F0000; opacity:1.00 " points="80.40,596.96 80.40,598.41 80.40,599.30 " />
<polygon style= "fill: #7F0000; opacity:1.00 " points="80.40,596.96 80.40,599.30 80.40,599.30 " />
<polygon style= "fill: #7F0000; opacity:1.00 " points="80.40,596.96 80.40,599.30 80.40,598.41 " />
<polygon style= "fill: #7F0000; opacity:1.00 " points="80.40,596.96 80.40,598.41 80.40,596.96 " />
<polygon style= "fill: #7F0000; opacity:1.00 " points="54.80,599.30 54.80,599.30 80.40,599.30 " />
<polygon style= "fill: #7F0000; opacity:1.00 " points="54.80,599.30 80.40,599.30 80.40,599.30 " />
<script type="text/ecmascript"><![CDATA[
var svgdoc, root; 
var fTol = 2000.;
var fBlueTol = 0.05 * fTol;
var fGreenTol = 0.017 * fTol;
var fRedTol = 0.032 * fTol;
var svgnsz="http://www.w3.org/2000/svg";
var version = 'Viewer unknown';
try
{
version = window.getSVGViewerVersion();
if(version.search("Adobe") != -1)
{
svgnsz = null;
}
}
catch(er)
{
}
function SubDivideTriangle(evt, x1,y1,x2,y2,x3,y3,c1R,c1G,c1B,c2R,c2G,c2B,c3R,c3G,c3B,alpha)
{
svgdoc=evt.target.ownerDocument;
root=evt.target;

if(Math.abs(c2B - c1B) > fBlueTol ||
Math.abs(c2G - c1G) > fGreenTol ||
Math.abs(c2R - c1R) > fRedTol ||
Math.abs(c3B - c1B) > fBlueTol ||
Math.abs(c3G - c1G) > fGreenTol ||
Math.abs(c3R - c1R) > fRedTol ||
Math.abs(c2B - c3B) > fBlueTol ||
Math.abs(c2G - c3G) > fGreenTol ||
Math.abs(c2R - c3R) > fRedTol )
{
var v1x = 0.5*(x1+x2);
var v1y = 0.5*(y1+y2);
var v2x = 0.5*(x1+x3);
var v2y = 0.5*(y1+y3);
var v3x = 0.5*(x2+x3);
var v3y = 0.5*(y2+y3);
var c1r = 0.5*(c1R+c2R);
var c1g = 0.5*(c1G+c2G);
var c1b = 0.5*(c1B+c2B);
var c2r = 0.5*(c1R+c3R);
var c2g = 0.5*(c1G+c3G);
var c2b = 0.5*(c1B+c3B);
var c3r = 0.5*(c2R+c3R);
var c3g = 0.5*(c2G+c3G);
var c3b = 0.5*(c2B+c3B);
SubDivideTriangle(evt,x1,y1,v1x,v1y,v2x,v2y, c1R,c1G,c1B,c1r,c1g,c1b,c2r,c2g,c2b, alpha);
SubDivideTriangle(evt,v1x,v1y,v2x,v2y,v3x,v3y, c1r,c1g,c1b,c2r,c2g,c2b,c3r,c3g,c3b,alpha);
SubDivideTriangle(evt,v1x,v1y,x2,y2,v3x,v3y, c1r,c1g,c1b,c2R,c2G,c2B,c3r,c3g,c3b,alpha);
SubDivideTriangle(evt,v2x,v2y,v3x,v3y,x3,y3, c2r,c2g,c2b,c3r,c3g,c3b,c3R,c3G,c3B,alpha);
}
else
{
obj = svgdoc.createElementNS(svgnsz,'polygon');
str = String(x1) + "," + String(y1) + " " + String(x2) + "," + String(y2) + " " + String(x3) + "," + String(y3) ;
obj.setAttributeNS(null,'points', str);
var rc = Math.round((c1R+c2R+c3R)/3.0).toString(16);
var gc = Math.round((c1G+c2G+c3G)/3.0).toString(16);
var bc = Math.round((c1B+c2B+c3B)/3.0).toString(16);
if(rc.length == 1) rc = "0"+rc;
if(gc.length == 1) gc = "0"+gc;
if(bc.length == 1) bc = "0"+bc;
cStr = "#" + rc + gc + bc;
aStr = String(alpha);
obj.setAttributeNS(null, "style", "fill:" + cStr + "; stroke:" + cStr + "; opacity:" + aStr );
aStr = String(alpha);
obj.setAttributeNS(null,"opacity", aStr);
root.appendChild(obj);
}
}
]]></script>
<g onload="SubDivideTriangle(evt,54.80,598.41,54.80,599.30,80.40,598.41,168,0,0,127,0,0,168,0,0,1.00)" />
<g onload="SubDivideTriangle(evt,54.80,599.30,80.40,599.30,80.40,598.41,127,0,0,127,0,0,168,0,0,1.00)" />
<g onload="SubDivideTriangle(evt,54.80,596.96,54.80,598.41,80.40,596.96,207,6,6,168,0,0,207,6,6,1.00)" />
<g onload="SubDivideTriangle(evt,54.80,598.41,80.40,598.41,80.40,596.96,168,0,0,168,0,0,207,6,6,1.00)" />
<g onload="SubDivideTriangle(evt,54.80,595.51,54.80,596.96,80.40,595.51,204,0,0,207,6,6,204,0,0,1.00)" />
<g onload="SubDivideTriangle(evt,54.80,596.96,80.40,596.96,80.40,595.51,207,6,6,207,6,6,204,0,0,1.00)" />
<g onload="SubDivideTriangle(evt,54.80,594.62,54.80,595.51,80.40,594.62,178,0,0,204,0,0,178,0,0,1.00)" />
<g onload="SubDivideTriangle(evt,54.80,595.51,80.40,595.51,80.40,594.62,204,0,0,204,0,0,178,0,0,1.00)" />
<g onload="SubDivideTriangle(evt,54.80,594.62,54.80,594.62,80.40,594.62,134,0,0,178,0,0,134,0,0,1.00)" />
<g onload="SubDivideTriangle(evt,54.80,594.62,80.40,594.62,80.40,594.62,178,0,0,178,0,0,134,0,0,1.00)" />
<g onload="SubDivideTriangle(evt,94.19,596.96,80.40,590.72,80.40,590.72,127,0,0,127,0,0,155,0,0,1.00)" />
<g onload="SubDivideTriangle(evt,94.19,596.96,80.40,590.72,80.40,593.10,127,0,0,155,0,0,178,0,0,1.00)" />
<g onload="SubDivideTriangle(evt,94.19,596.96,80.40,593.10,80.40,596.96,127,0,0,178,0,0,174,0,0,1.00)" />
<g onload="SubDivideTriangle(evt,94.19,596.96,80.40,596.96,80.40,600.82,127,0,0,174,0,0,146,0,0,1.00)" />
<g onload="SubDivideTriangle(evt,94.19,596.96,80.40,600.82,80.40,603.20,127,0,0,146,0,0,127,0,0,1.00)" />
<polygon style= "fill: #7F0000; opacity:1.00 " points="94.19,596.96 80.40,603.20 80.40,603.20 " />
<polygon style= "fill: #A90000; opacity:1.00 " points="80.40,596.96 80.40,596.96 80.40,600.82 " />
<polygon style= "fill: #A90000; opacity:1.00 " points="80.40,596.96 80.40,600.82 80.40,603.20 " />
<polygon style= "fill: #A90000; opacity:1.00 " points="80.40,596.96 80.40,603.20 80.40,603.20 " />
<polygon style= "fill: #A90000; opacity:1.00 " points="80.40,596.96 80.40,603.20 80.40,600.82 " />
<polygon style= "fill: #A90000; opacity:1.00 " points="80.40,596.96 80.40,600.82 80.40,596.96 " />
<polygon style= "fill: #A90000; opacity:1.00 " points="80.40,596.96 80.40,596.96 80.40,593.10 " />
<polygon style= "fill: #A90000; opacity:1.00 " points="80.40,596.96 80.40,593.10 80.40,590.72 " />
<polygon style= "fill: #A90000; opacity:1.00 " points="80.40,596.96 80.40,590.72 80.40,590.72 " />
<polygon style= "fill: #A90000; opacity:1.00 " points="80.40,596.96 80.40,590.72 80.40,593.10 " />
<polygon style= "fill: #A90000; opacity:1.00 " points="80.40,596.96 80.40,593.10 80.40,596.96 " />
<polygon style= "fill: #007F00; opacity:1.00 " points="57.26,596.96 56.79,596.96 55.56,596.96 " />
<polygon style= "fill: #007F00; opacity:1.00 " points="57.26,596.96 55.56,596.96 54.04,596.96 " />
<polygon style= "fill: #007F00; opacity:1.00 " points="57.26,596.96 54.04,596.96 52.81,596.96 " />
<polygon style= "fill: #007F00; opacity:1.00 " points="57.26,596.96 52.81,596.96 52.34,596.96 " />
<polygon style= "fill: #007F00; opacity:1.00 " points="57.26,596.96 52.34,596.96 52.81,596.96 " />
<polygon style= "fill: #007F00; opacity:1.00 " points="57.26,596.96 52.81,596.96 54.04,596.96 " />
<polygon style= "fill: #007F00; opacity:1.00 " points="57.26,596.96 54.04,596.96 55.56,596.96 " />
<polygon style= "fill: #007F00; opacity:1.00 " points="57.26,596.96 55.56,596.96 56.79,596.96 " />
<polygon style= "fill: #007F00; opacity:1.00 " points="57.26,596.96 56.79,596.96 57.26,596.96 " />
<polygon style= "fill: #009D00; opacity:1.00 " points="57.26,571.38 56.79,571.38 55.56,571.38 " />
<polygon style= "fill: #009D00; opacity:1.00 " points="57.26,571.38 55.56,571.38 54.04,571.38 " />
<polygon style= "fill: #009D00; opacity:1.00 " points="57.26,571.38 54.04,571.38 52.81,571.38 " />
<polygon style= "fill: #009D00; opacity:1.00 " points="57.26,571.38 52.81,571.38 52.34,571.38 " />
<polygon style= "fill: #009D00; opacity:1.00 " points="57.26,571.38 52.34,571.38 52.81,571.38 " />
<polygon style= "fill: #009D00; opacity:1.00 " points="57.26,571.38 52.81,571.38 54.04,571.38 " />
<polygon style= "fill: #009D00; opacity:1.00 " points="57.26,571.38 54.04,571.38 55.56,571.38 " />
<polygon style= "fill: #009D00; opacity:1.00 " points="57.26,571.38 55.56,571.38 56.79,571.38 " />
<polygon style= "fill: #009D00; opacity:1.00 " points="57.26,571.38 56.79,571.38 57.26,571.38 " />
<g onload="SubDivideTriangle(evt,56.79,596.96,57.26,596.96,56.79,571.38,0,136,0,0,127,0,0,136,0,1.00)" />
<g onload="SubDivideTriangle(evt,57.26,596.96,57.26,571.38,56.79,571.38,0,127,0,0,127,0,0,136,0,1.00)" />
<g onload="SubDivideTriangle(evt,55.56,596.96,56.79,596.96,55.56,571.38,0,183,0,0,136,0,0,183,0,1.00)" />
<g onload="SubDivideTriangle(evt,56.79,596.96,56.79,571.38,55.56,571.38,0,136,0,0,136,0,0,183,0,1.00)" />
<g onload="SubDivideTriangle(evt,54.04,596.96,55.56,596.96,54.04,571.38,48,255,48,0,183,0,48,255,48,1.00)" />
<g onload="SubDivideTriangle(evt,55.56,596.96,55.56,571.38,54.04,571.38,0,183,0,0,183,0,48,255,48,1.00)" />
<g onload="SubDivideTriangle(evt,52.81,596.96,54.04,596.96,52.81,571.38,0,203,0,48,255,48,0,203,0,1.00)" />
<g onload="SubDivideTriangle(evt,54.04,596.96,54.04,571.38,52.81,571.38,48,255,48,48,255,48,0,203,0,1.00)" />
<g onload="SubDivideTriangle(evt,52.34,596.96,52.81,596.96,52.34,571.38,0,169,0,0,203,0,0,169,0,1.00)" />
<g onload="SubDivideTriangle(evt,52.81,596.96,52.81,571.38,52.34,571.38,0,203,0,0,203,0,0,169,0,1.00)" />
<g onload="SubDivideTriangle(evt,54.80,557.60,48.24,571.38,49.49,571.38,0,157,0,0,178,0,0,209,0,1.00)" />
<g onload="SubDivideTriangle(evt,54.80,557.60,49.49,571.38,52.77,571.38,0,157,0,0,209,0,13,230,13,1.00)" />
<g onload="SubDivideTriangle(evt,54.80,557.60,52.77,571.38,56.83,571.38,0,157,0,13,230,13,0,191,0,1.00)" />
<g onload="SubDivideTriangle(evt,54.80,557.60,56.83,571.38,60.11,571.38,0,157,0,0,191,0,0,148,0,1.00)" />
<g onload="SubDivideTriangle(evt,54.80,557.60,60.11,571.38,61.36,571.38,0,157,0,0,148,0,0,127,0,1.00)" />
<polygon style= "fill: #007F00; opacity:1.00 " points="54.80,571.38 61.36,571.38 60.11,571.38 " />
<polygon style= "fill: #007F00; opacity:1.00 " points="54.80,571.38 60.11,571.38 56.83,571.38 " />
<polygon style= "fill: #007F00; opacity:1.00 " points="54.80,571.38 56.83,571.38 52.77,571.38 " />
<polygon style= "fill: #007F00; opacity:1.00 " points="54.80,571.38 52.77,571.38 49.49,571.38 " />
<polygon style= "fill: #007F00; opacity:1.00 " points="54.80,571.38 49.49,571.38 48.24,571.38 " />
<polygon style= "fill: #007F00; opacity:1.00 " points="54.80,571.38 48.24,571.38 49.49,571.38 " />
<polygon style= "fill: #007F00; opacity:1.00 " points="54.80,571.38 49.49,571.38 52.77,571.38 " />
<polygon style= "fill: #007F00; opacity:1.00 " points="54.80,571.38 52.77,571.38 56.83,571.38 " />
<polygon style= "fill: #007F00; opacity:1.00 " points="54.80,571.38 56.83,571.38 60.11,571.38 " />
<polygon style= "fill: #007F00; opacity:1.00 " points="54.80,571.38 60.11,571.38 61.36,571.38 " />
<polygon style= "fill: #00007F; opacity:1.00 " points="57.26,596.96 56.79,595.51 57.26,596.96 " />
<polygon style= "fill: #0606CF; opacity:1.00 " points="57.26,596.96 56.79,595.51 55.56,594.62 " />
<polygon style= "fill: #0606CF; opacity:1.00 " points="57.26,596.96 55.56,594.62 54.04,594.62 " />
<polygon style= "fill: #0606CF; opacity:1.00 " points="57.26,596.96 54.04,594.62 52.81,595.51 " />
<polygon style= "fill: #0606CF; opacity:1.00 " points="57.26,596.96 52.81,595.51 52.34,596.96 " />
<polygon style= "fill: #0606CF; opacity:1.00 " points="57.26,596.96 52.34,596.96 52.81,598.41 " />
<polygon style= "fill: #0606CF; opacity:1.00 " points="57.26,596.96 52.81,598.41 54.04,599.30 " />
<polygon style= "fill: #0606CF; opacity:1.00 " points="57.26,596.96 54.04,599.30 55.56,599.30 " />
<polygon style= "fill: #0606CF; opacity:1.00 " points="57.26,596.96 55.56,599.30 56.79,598.41 " />
<polygon style= "fill: #0606CF; opacity:1.00 " points="57.26,596.96 56.79,598.41 57.26,596.96 " />
<polygon style= "fill: #00007F; opacity:1.00 " points="56.79,598.41 57.26,596.96 56.79,598.41 " />
<polygon style= "fill: #00007F; opacity:1.00 " points="57.26,596.96 57.26,596.96 56.79,598.41 " />
<polygon style= "fill: #00007F; opacity:1.00 " points="55.56,599.30 56.79,598.41 55.56,599.30 " />
<polygon style= "fill: #00007F; opacity:1.00 " points="56.79,598.41 56.79,598.41 55.56,599.30 " />
<polygon style= "fill: #00007F; opacity:1.00 " points="54.04,599.30 55.56,599.30 54.04,599.30 " />
<polygon style= "fill: #00007F; opacity:1.00 " points="55.56,599.30 55.56,599.30 54.04,599.30 " />
<g onload="SubDivideTriangle(evt,52.81,598.41,54.04,599.30,52.81,598.41,0,0,143,0,0,127,0,0,143,1.00)" />
<g onload="SubDivideTriangle(evt,54.04,599.30,54.04,599.30,52.81,598.41,0,0,127,0,0,127,0,0,143,1.00)" />
<g onload="SubDivideTriangle(evt,52.34,596.96,52.81,598.41,52.34,596.96,0,0,169,0,0,143,0,0,169,1.00)" />
<g onload="SubDivideTriangle(evt,52.81,598.41,52.81,598.41,52.34,596.96,0,0,143,0,0,143,0,0,169,1.00)" />
<g onload="SubDivideTriangle(evt,52.81,595.51,52.34,596.96,52.81,595.51,0,0,179,0,0,169,0,0,179,1.00)" />
<g onload="SubDivideTriangle(evt,52.34,596.96,52.34,596.96,52.81,595.51,0,0,169,0,0,169,0,0,179,1.00)" />
<g onload="SubDivideTriangle(evt,54.04,594.62,52.81,595.51,54.04,594.62,0,0,169,0,0,179,0,0,169,1.00)" />
<g onload="SubDivideTriangle(evt,52.81,595.51,52.81,595.51,54.04,594.62,0,0,179,0,0,179,0,0,169,1.00)" />
<g onload="SubDivideTriangle(evt,55.56,594.62,54.04,594.62,55.56,594.62,0,0,143,0,0,169,0,0,143,1.00)" />
<g onload="SubDivideTriangle(evt,54.04,594.62,54.04,594.62,55.56,594.62,0,0,169,0,0,169,0,0,143,1.00)" />
<g onload="SubDivideTriangle(evt,56.79,595.51,55.56,594.62,56.79,595.51,0,0,127,0,0,143,0,0,127,1.00)" />
<g onload="SubDivideTriangle(evt,55.56,594.62,55.56,594.62,56.79,595.51,0,0,143,0,0,143,0,0,127,1.00)" />
<polygon style= "fill: #00007F; opacity:1.00 " points="57.26,596.96 56.79,595.51 57.26,596.96 " />
<polygon style= "fill: #00007F; opacity:1.00 " points="56.79,595.51 56.79,595.51 57.26,596.96 " />
<g onload="SubDivideTriangle(evt,54.80,596.96,61.36,596.96,60.11,593.10,6,6,207,0,0,127,0,0,144,1.00)" />
<g onload="SubDivideTriangle(evt,54.80,596.96,60.11,593.10,56.83,590.72,6,6,207,0,0,144,0,0,173,1.00)" />
<g onload="SubDivideTriangle(evt,54.80,596.96,56.83,590.72,52.77,590.72,6,6,207,0,0,173,0,0,196,1.00)" />
<g onload="SubDivideTriangle(evt,54.80,596.96,52.77,590.72,49.49,593.10,6,6,207,0,0,196,0,0,205,1.00)" />
<g onload="SubDivideTriangle(evt,54.80,596.96,49.49,593.10,48.24,596.96,6,6,207,0,0,205,0,0,196,1.00)" />
<g onload="SubDivideTriangle(evt,54.80,596.96,48.24,596.96,49.49,600.82,6,6,207,0,0,196,0,0,173,1.00)" />
<g onload="SubDivideTriangle(evt,54.80,596.96,49.49,600.82,52.77,603.20,6,6,207,0,0,173,0,0,144,1.00)" />
<g onload="SubDivideTriangle(evt,54.80,596.96,52.77,603.20,56.83,603.20,6,6,207,0,0,144,0,0,127,1.00)" />
<g onload="SubDivideTriangle(evt,54.80,596.96,56.83,603.20,60.11,600.82,6,6,207,0,0,127,0,0,127,1.00)" />
<g onload="SubDivideTriangle(evt,54.80,596.96,60.11,600.82,61.36,596.96,6,6,207,0,0,127,0,0,127,1.00)" />
<line x1="166.25" y1="13.12"  x2="13.70" y2="13.12" style= "stroke: #000000;stroke-width:0.67; stroke-dasharray: 0 " /> 
<line x1="13.70" y1="13.12"  x2="13.70" y2="271.87" style= "stroke: #000000;stroke-width:0.67; stroke-dasharray: 0 " /> 
<line x1="13.70" y1="271.87"  x2="166.25" y2="271.87" style= "stroke: #000000;stroke-width:0.67; stroke-dasharray: 0 " /> 
<line x1="166.25" y1="271.87"  x2="166.25" y2="13.12" style= "stroke: #000000;stroke-width:0.67; stroke-dasharray: 0 " /> 
<line x1="28.71" y1="256.87"  x2="58.73" y2="256.87" style= "stroke: #000000;stroke-width:0.67; stroke-dasharray: 0 " /> 
<line x1="28.71" y1="241.87"  x2="58.73" y2="241.87" style= "stroke: #000000;stroke-width:0.67; stroke-dasharray: 0 " /> 
<line x1="28.71" y1="226.87"  x2="58.73" y2="226.87" style= "stroke: #000000;stroke-width:0.67; stroke-dasharray: 0 " /> 
<line x1="28.71" y1="211.87"  x2="58.73" y2="211.87" style= "stroke: #000000;stroke-width:0.67; stroke-dasharray: 0 " /> 
<line x1="28.71" y1="196.87"  x2="58.73" y2="196.87" style= "stroke: #000000;stroke-width:0.67; stroke-dasharray: 0 " /> 
<line x1="28.71" y1="181.87"  x2="58.73" y2="181.87" style= "stroke: #000000;stroke-width:0.67; stroke-dasharray: 0 " /> 
<line x1="28.71" y1="166.87"  x2="58.73" y2="166.87" style= "stroke: #000000;stroke-width:0.67; stroke-dasharray: 0 " /> 
<line x1="28.71" y1="151.87"  x2="58.73" y2="151.87" style= "stroke: #000000;stroke-width:0.67; stroke-dasharray: 0 " /> 
<line x1="28.71" y1="136.87"  x2="58.73" y2="136.87" style= "stroke: #000000;stroke-width:0.67; stroke-dasharray: 0 " /> 
<line x1="28.71" y1="121.87"  x2="58.73" y2="121.87" style= "stroke: #000000;stroke-width:0.67; stroke-dasharray: 0 " /> 
<line x1="28.71" y1="106.87"  x2="58.73" y2="106.87" style= "stroke: #000000;stroke-width:0.67; stroke-dasharray: 0 " /> 
<line x1="28.71" y1="91.87"  x2="58.73" y2="91.87" style= "stroke: #000000;stroke-width:0.67; stroke-dasharray: 0 " /> 
<line x1="28.71" y1="76.87"  x2="58.73" y2="76.87" style= "stroke: #000000;stroke-width:0.67; stroke-dasharray: 0 " /> 
<line x1="28.71" y1="256.87"  x2="28.71" y2="76.87" style= "stroke: #000000;stroke-width:0.67; stroke-dasharray: 0 " /> 
<line x1="28.71" y1="76.87"  x2="51.23" y2="76.87" style= "stroke: #000000;stroke-width:0.67; stroke-dasharray: 0 " /> 
<line x1="51.23" y1="76.87"  x2="51.23" y2="256.87" style= "stroke: #000000;stroke-width:0.67; stroke-dasharray: 0 " /> 
<line x1="51.23" y1="256.87"  x2="28.71" y2="256.87" style= "stroke: #000000;stroke-width:0.67; stroke-dasharray: 0 " /> 
<text x="28.71" y="61.87" style=" font-family:verdana; font-weight:normal; font-style:normal; font-size:15.99; fill:#000000;" > 
 (Avg: 75%) 
 </text>
<text x="28.71" y="43.12" style=" font-family:verdana; font-weight:normal; font-style:normal; font-size:15.99; fill:#000000;" > 
 S, Mises 
 </text>
<text x="66.24" y="260.62" style=" font-family:verdana; font-weight:normal; font-style:normal; font-size:15.99; fill:#000000;" > 
 +1.000e+06 
 </text>
<text x="66.24" y="245.62" style=" font-family:verdana; font-weight:normal; font-style:normal; font-size:15.99; fill:#000000;" > 
 +1.092e+07 
 </text>
<text x="66.24" y="230.62" style=" font-family:verdana; font-weight:normal; font-style:normal; font-size:15.99; fill:#000000;" > 
 +2.083e+07 
 </text>
<text x="66.24" y="215.62" style=" font-family:verdana; font-weight:normal; font-style:normal; font-size:15.99; fill:#000000;" > 
 +3.075e+07 
 </text>
<text x="66.24" y="200.62" style=" font-family:verdana; font-weight:normal; font-style:normal; font-size:15.99; fill:#000000;" > 
 +4.067e+07 
 </text>
<text x="66.24" y="185.62" style=" font-family:verdana; font-weight:normal; font-style:normal; font-size:15.99; fill:#000000;" > 
 +5.058e+07 
 </text>
<text x="66.24" y="170.62" style=" font-family:verdana; font-weight:normal; font-style:normal; font-size:15.99; fill:#000000;" > 
 +6.050e+07 
 </text>
<text x="66.24" y="155.62" style=" font-family:verdana; font-weight:normal; font-style:normal; font-size:15.99; fill:#000000;" > 
 +7.042e+07 
 </text>
<text x="66.24" y="140.62" style=" font-family:verdana; font-weight:normal; font-style:normal; font-size:15.99; fill:#000000;" > 
 +8.033e+07 
 </text>
<text x="66.24" y="125.62" style=" font-family:verdana; font-weight:normal; font-style:normal; font-size:15.99; fill:#000000;" > 
 +9.025e+07 
 </text>
<text x="66.24" y="110.62" style=" font-family:verdana; font-weight:normal; font-style:normal; font-size:15.99; fill:#000000;" > 
 +1.002e+08 
 </text>
<text x="66.24" y="95.62" style=" font-family:verdana; font-weight:normal; font-style:normal; font-size:15.99; fill:#000000;" > 
 +1.101e+08 
 </text>
<text x="66.24" y="80.62" style=" font-family:verdana; font-weight:normal; font-style:normal; font-size:15.99; fill:#000000;" > 
 +1.200e+08 
 </text>
<text x="96.56" y="592.28" style=" font-family:verdana; font-weight:normal; font-style:normal; font-size:15.99; fill:#000000;" > 
 Step: cantilever beam 
 </text>
<text x="96.56" y="608.78" style=" font-family:verdana; font-weight:normal; font-style:normal; font-size:15.99; fill:#000000;" > 
 Increment      1: Step Time =    1.000 
 </text>
<text x="96.56" y="625.28" style=" font-family:verdana; font-weight:normal; font-style:normal; font-size:15.99; fill:#000000;" > 
 Primary Var: S, Mises 
 </text>
<text x="96.56" y="641.78" style=" font-family:verdana; font-weight:normal; font-style:normal; font-size:15.99; fill:#000000;" > 
 Deformed Var: U   Deformation Scale Factor: +1.000e+00 
 </text>
<text x="96.56" y="539.80" style=" font-family:verdana; font-weight:normal; font-style:normal; font-size:15.99; fill:#000000;" > 
  
 </text>
<text x="96.56" y="556.30" style=" font-family:verdana; font-weight:normal; font-style:normal; font-size:15.99; fill:#000000;" > 
 ODB: 12x2-CPS4.odb    Abaqus/Standard 3DEXPERIENCE R2016x    Wed Mar 18 22:09:07 CET 2020 
 </text>
<text x="104.64" y="601.46" style=" font-family:verdana; font-weight:bold; font-style:normal; font-size:15.99; fill:#000000;" > 
 X 
 </text>
<text x="49.30" y="546.16" style=" font-family:verdana; font-weight:bold; font-style:normal; font-size:15.99; fill:#000000;" > 
 Y 
 </text>
<text x="49.80" y="601.46" style=" font-family:verdana; font-weight:bold; font-style:normal; font-size:15.99; fill:#000000;" > 
 Z 
 </text>
</svg>
</svg>
